SplineFontDB: 3.0
FontName: StickNoBills
FullName: Stick No Bills
FamilyName: Stick No Bills
Weight: Regular
Copyright: Copyright (c) 2013, STICK NO BILLS\nCopyright (c) 2015, mooniak\n
UComments: "2015-2-15: Created with FontForge (http://fontforge.org)"
Version: 1.0.1
ItalicAngle: 0
UnderlinePosition: -102
UnderlineWidth: 51
Ascent: 819
Descent: 205
InvalidEm: 0
LayerCount: 2
Layer: 0 0 "Back" 1
Layer: 1 0 "Fore" 0
XUID: [1021 792 -450466945 9124014]
FSType: 0
OS2Version: 0
OS2_WeightWidthSlopeOnly: 0
OS2_UseTypoMetrics: 1
CreationTime: 1423989519
ModificationTime: 1428173332
PfmFamily: 81
TTFWeight: 400
TTFWidth: 5
LineGap: 94
VLineGap: 0
OS2TypoAscent: 0
OS2TypoAOffset: 1
OS2TypoDescent: 0
OS2TypoDOffset: 1
OS2TypoLinegap: 94
OS2WinAscent: 0
OS2WinAOffset: 1
OS2WinDescent: 0
OS2WinDOffset: 1
HheadAscent: 0
HheadAOffset: 1
HheadDescent: 0
HheadDOffset: 1
OS2CapHeight: 0
OS2XHeight: 0
OS2Vendor: 'PfEd'
OS2UnicodeRanges: 00000002.00000000.00000000.00000000
Lookup: 258 0 0 "'kern' Horizontal Kerning lookup 0" { "'kern' Horizontal Kerning lookup 0-1" [153,15,0] "'kern' Horizontal Kerning lookup 0-2" [153,15,0] "'kern' Horizontal Kerning lookup 0-3" [153,15,0] "'kern' Horizontal Kerning lookup 0-4" [153,15,0] "'kern' Horizontal Kerning lookup 0-5" [153,15,0] "'kern' Horizontal Kerning lookup 0-6" [153,15,0] "'kern' Horizontal Kerning lookup 0-7" [153,15,0] "'kern' Horizontal Kerning lookup 0-8" [153,15,0] "'kern' Horizontal Kerning lookup 0-9" [153,15,0] "'kern' Horizontal Kerning lookup 0-10" [153,15,0] "'kern' Horizontal Kerning lookup 0-5" [153,15,0] } ['kern' ('DFLT' <'dflt' > 'hani' <'dflt' > 'latn' <'dflt' > ) ]
MarkAttachClasses: 1
DEI: 91125
KernClass2: 5 12 "'kern' Horizontal Kerning lookup 0-5"
 1 W
 1 Y
 1 V
 0 
 1 a
 1 e
 1 o
 1 d
 1 q
 1 s
 1 c
 1 g
 1 x
 1 y
 1 z

StartChar: A
Encoding: 65 65 0
Width: 516
VWidth: 0
Flags: HW
HStem: 0 21G<26 168.371 348.294 490> 0 21G<26 168.371 348.294 490> 679 20G<200 343.32> 679 20G<200 343.32>
VStem: 155 15<549.661 582>
LayerCount: 2
Back
Fore
SplineSet
289.365234375 582 m 5x88
 304.365234375 582 l 5
 299.72265625 302 l 5
 164 0 l 5
 26 0 l 5
 289.365234375 582 l 5x88
361.376953125 699 m 1xa8
 500.376953125 699 l 1
 490 0 l 1
 353 0 l 1
 352.624023438 85 l 1
 258.624023438 85 l 1
 320.483398438 223 l 1
 356.483398438 223 l 1
 361.376953125 699 l 1xa8
EndSplineSet
EndChar

StartChar: B
Encoding: 66 66 1
Width: 484
VWidth: 0
Flags: HW
HStem: 0 122<221 291.531> 289 122<221 291.168> 577 123<221 291.515>
VStem: 26 141<0 700> 324 134<151.717 258.739 443.181 546.292>
LayerCount: 2
Back
Fore
SplineSet
249.166015625 122 m 1
 336.166015625 122 365.325195312 179 371.328125 205 c 0
 376.407226562 227 377.720703125 289 287.720703125 289 c 1
 315.88671875 411 l 1
 375.88671875 411 424.966796875 446 436.741210938 497 c 0
 448.28515625 547 412.98046875 576 354.2109375 577 c 1
 382.607421875 700 l 1
 390.838867188 701 398.838867188 701 406.838867188 701 c 0
 558.838867188 701 586.518554688 574 572.666015625 514 c 0
 572.666015625 514 572.435546875 513 572.435546875 513 c 0
 550.1953125 421 507.268554688 378 466.265625 352 c 1
 497.33984375 322 523.797851562 285 504.404296875 201 c 0
 503.942382812 199 503.711914062 198 503.481445312 197 c 0
 476.854492188 86 365.538085938 -2 248.538085938 -2 c 0
 239.538085938 -2 229.76953125 -1 221 0 c 1
 249.166015625 122 l 1
187.607421875 700 m 1
 328.607421875 700 l 1
 167 0 l 1
 26 0 l 1
 187.607421875 700 l 1
EndSplineSet
EndChar

StartChar: D
Encoding: 68 68 2
Width: 452
VWidth: 0
Flags: HW
HStem: 0 21G<32 173 227 257> 0 21G<32 173 227 257> 680 20G<32 173 227 298.5>
VStem: 32 141<0 700> 283 141<158.175 544.574>
LayerCount: 2
Back
Fore
SplineSet
227 0 m 1xb8
 259.552734375 141 l 1
 265.552734375 141 316.399414062 149 328.481445312 197 c 2
 399.126953125 503 l 1
 400.28125 508 403.82421875 558 356.055664062 559 c 1
 388.607421875 700 l 1
 531.607421875 700 554.671875 566 540.126953125 503 c 1
 469.481445312 197 l 1
 435.54296875 50 287 0 227 0 c 1xb8
193.607421875 700 m 1
 334.607421875 700 l 1
 173 0 l 1
 32 0 l 1
 193.607421875 700 l 1
EndSplineSet
EndChar

StartChar: I
Encoding: 73 73 3
Width: 209
VWidth: 0
Flags: HW
HStem: 0 21G<34 175> 0 21G<34 175> 680 20G<34 175>
VStem: 34 141<0 700>
LayerCount: 2
Back
Fore
SplineSet
195.607421875 700 m 1xb0
 336.607421875 700 l 1
 175 0 l 1
 34 0 l 1
 195.607421875 700 l 1xb0
EndSplineSet
EndChar

StartChar: L
Encoding: 76 76 4
Width: 428
VWidth: 0
Flags: HW
HStem: 0 139<167 402> 680 20G<26 167>
VStem: 26 141<139 700>
LayerCount: 2
Back
Fore
SplineSet
434.090820312 139 m 1
 402 0 l 1
 26 0 l 1
 187.607421875 700 l 1
 328.607421875 700 l 1
 199.090820312 139 l 1
 434.090820312 139 l 1
EndSplineSet
EndChar

StartChar: T
Encoding: 84 84 5
Width: 485
VWidth: 0
Flags: HW
HStem: 0 21G<172 313> 0 21G<172 313> 562 138<26 172 313 459>
VStem: 172 141<0 562>
LayerCount: 2
Back
Fore
SplineSet
620.607421875 700 m 1xb0
 588.748046875 562 l 1
 442.748046875 562 l 1
 313 0 l 1
 172 0 l 1
 301.748046875 562 l 1
 155.748046875 562 l 1
 187.607421875 700 l 1
 620.607421875 700 l 1xb0
EndSplineSet
EndChar

StartChar: K
Encoding: 75 75 6
Width: 475
VWidth: 0
Flags: HW
HStem: 0 21G<26 167 312.431 457> 0 21G<26 167 312.431 457> 680 20G<26 167 308.039 453>
VStem: 26 141<0 700>
LayerCount: 2
Back
Fore
SplineSet
475.607421875 700 m 5xb0
 614.607421875 700 l 5
 425.725585938 341 l 5
 457 0 l 5
 319 0 l 5
 285.725585938 341 l 5
 475.607421875 700 l 5xb0
187.607421875 700 m 1
 328.607421875 700 l 1
 167 0 l 1
 26 0 l 1
 187.607421875 700 l 1
EndSplineSet
EndChar

StartChar: P
Encoding: 80 80 7
Width: 474
VWidth: 0
Flags: HW
HStem: 0 21G<26 167> 0 21G<26 167> 318 139<221 294.329> 561 139<221 296.296>
VStem: 26 141<0 700> 305 143<466.352 553.217>
LayerCount: 2
Back
Fore
SplineSet
326.506835938 457 m 1x3c
 359.506835938 457 l 2
 366.506835938 457 410.737304688 458 422.28125 508 c 0
 434.055664062 559 392.516601562 561 383.516601562 561 c 2
 350.516601562 561 l 1
 382.607421875 700 l 1
 563.607421875 700 592.5234375 626 566.204101562 512 c 0
 533.190429688 369 451.416015625 318 294.416015625 318 c 1
 326.506835938 457 l 1x3c
187.607421875 700 m 1
 328.607421875 700 l 1
 167 0 l 1
 26 0 l 1xbc
 187.607421875 700 l 1
EndSplineSet
EndChar

StartChar: M
Encoding: 77 77 8
Width: 676
VWidth: 0
Flags: HW
HStem: 0 21G<32 173 276.678 390.874 503 644> 0 21G<32 173 276.678 390.874 503 644> 680 20G<32 150.251 503 644>
VStem: 32 141<0 127> 503 141<0 700>
LayerCount: 2
Back
Fore
SplineSet
32 0 m 1xb8
 134.505859375 444 l 1
 143.505859375 444 l 1
 202.3203125 127 l 1
 173 0 l 1
 32 0 l 1xb8
193.607421875 700 m 1
 303.607421875 700 l 1
 387.715820312 237 l 1
 548.893554688 476 l 1
 558.893554688 476 l 1
 483.861328125 151 l 1
 382 0 l 1
 285 0 l 1
 172.368164062 608 l 1
 193.607421875 700 l 1
664.607421875 700 m 1
 805.607421875 700 l 1
 644 0 l 1
 503 0 l 1
 664.607421875 700 l 1
EndSplineSet
EndChar

StartChar: R
Encoding: 82 82 9
Width: 495
VWidth: 0
Flags: HW
HStem: 0 21G<32 173 341.315 469> 0 21G<32 173 341.315 469> 286 125<227 298.384> 567 133<227 297.775>
VStem: 32 141<0 700> 326 127<133.346 257.248 433.007 541.035>
LayerCount: 2
Back
Fore
SplineSet
321.88671875 411 m 1xbc
 334.88671875 411 l 2
 394.88671875 411 429.198242188 447 438.6640625 488 c 0
 449.745117188 536 419.90234375 567 370.90234375 567 c 2
 357.90234375 567 l 1
 388.607421875 700 l 1
 538.607421875 700 595.21484375 616 567.510742188 496 c 0
 551.811523438 428 519.9609375 381 467.265625 352 c 1
 497.032226562 325 509.526367188 265.701171875 502.098632812 217 c 2
 469 0 l 1
 343 0 l 1
 369.094726562 178 l 2
 380.739257812 257.435546875 363.797851562 285 293.028320312 286 c 1
 321.88671875 411 l 1xbc
193.607421875 700 m 1
 334.607421875 700 l 1
 173 0 l 1
 32 0 l 1
 193.607421875 700 l 1
EndSplineSet
EndChar

StartChar: J
Encoding: 74 74 10
Width: 495
VWidth: 0
Flags: HW
HStem: -5 142<180.708 213 267 307.368> 680 20G<323 463>
VStem: 26 141<150.234 242> 323 140<154.843 700>
LayerCount: 2
Back
Fore
SplineSet
211.845703125 -5 m 1
 151.845703125 -5 38.466796875 54 70.5576171875 193 c 1
 81.8701171875 242 l 1
 222.870117188 242 l 1
 211.557617188 193 l 2
 201.9375 147 239.62890625 137 244.62890625 137 c 1
 211.845703125 -5 l 1
265.845703125 -5 m 1
 298.62890625 137 l 1
 303.62890625 137 355.9375 147 367.557617188 193 c 2
 484.607421875 700 l 1
 624.607421875 700 l 1
 507.557617188 193 l 1
 474.3125 49 325.845703125 -5 265.845703125 -5 c 1
EndSplineSet
EndChar

StartChar: C
Encoding: 67 67 11
Width: 494
VWidth: 0
Flags: HW
HStem: 685 20G<157.5 229 283 329>
VStem: 32 141<148.773 550.292> 330 138<148.189 182 516 551.605>
LayerCount: 2
Back
Fore
SplineSet
413.209960938 564 m 5
 445.76171875 705 l 5
 537.76171875 705 609.291015625 612 587.127929688 516 c 5
 440.81640625 480 l 5
 444.279296875 495 l 6
 447.51171875 509 450.051757812 520 447.822265625 532 c 4
 443.131835938 555 413.209960938 564 413.209960938 564 c 5
314.3984375 136 m 1
 314.3984375 136 348.013671875 143 363.32421875 166 c 0
 371.094726562 178 373.633789062 189 376.866210938 203 c 2
 379.63671875 215 l 1
 510.017578125 182 l 1
 485.545898438 76 373.845703125 -5 281.845703125 -5 c 1
 314.3984375 136 l 1
391.76171875 705 m 1
 359.209960938 564 l 1
 312.978515625 563 293.744140625 523 292.58984375 518 c 1
 214.787109375 181 l 1
 213.6328125 176 214.3984375 136 260.3984375 136 c 1
 227.845703125 -5 l 1
 84.845703125 -5 59.9345703125 121 73.787109375 181 c 1
 151.58984375 518 l 1
 165.44140625 578 248.76171875 705 391.76171875 705 c 1
EndSplineSet
EndChar

StartChar: U
Encoding: 85 85 12
Width: 512
VWidth: 0
Flags: HW
HStem: -5 142<188.54 229 283 323.46> 680 20G<32 173 339 479>
VStem: 32 141<154.843 700> 339 140<154.843 700>
LayerCount: 2
Back
Fore
SplineSet
227.845703125 -5 m 1
 167.845703125 -5 43.3125 49 76.5576171875 193 c 1
 193.607421875 700 l 1
 334.607421875 700 l 1
 217.557617188 193 l 2
 207.9375 147 255.62890625 137 260.62890625 137 c 1
 227.845703125 -5 l 1
524.557617188 193 m 1
 491.3125 49 341.845703125 -5 281.845703125 -5 c 1
 314.62890625 137 l 1
 319.62890625 137 371.9375 147 383.557617188 193 c 2
 500.607421875 700 l 1
 640.607421875 700 l 1
 523.557617188 193 l 1
 524.557617188 193 l 1
EndSplineSet
EndChar

StartChar: E
Encoding: 69 69 13
Width: 422
VWidth: 0
Flags: HW
HStem: 0 141<173 396> 277 141<173 302> 560 140<173 396>
VStem: 32 364<0 141 560 700> 32 141<141 277 418 560>
LayerCount: 2
Back
Fore
SplineSet
428.552734375 141 m 1xf0
 396 0 l 1
 32 0 l 1
 193.607421875 700 l 1
 557.607421875 700 l 1
 525.286132812 560 l 1xf0
 302.286132812 560 l 1
 269.502929688 418 l 1
 398.502929688 418 l 1
 365.950195312 277 l 1
 236.950195312 277 l 1
 205.552734375 141 l 1xe8
 428.552734375 141 l 1xf0
EndSplineSet
EndChar

StartChar: O
Encoding: 79 79 14
Width: 508
VWidth: 0
Flags: HW
HStem: -5 142<185.632 226 281 321.46> 564 141<186.089 227 281 321.65>
VStem: 30 141<156.794 549.004> 337 141<156.794 548.717>
LayerCount: 2
Back
Fore
SplineSet
224.845703125 -5 m 5
 164.845703125 -5 41.7744140625 51 75.01953125 195 c 6
 150.974609375 524 l 6
 164.827148438 584 257.76171875 705 389.76171875 705 c 5
 357.209960938 564 l 5
 310.978515625 563 289.435546875 513 288.28125 508 c 6
 216.01953125 195 l 6
 205.399414062 149 252.62890625 137 257.62890625 137 c 5
 224.845703125 -5 l 5
279.845703125 -5 m 5
 312.62890625 137 l 5
 317.62890625 137 370.399414062 149 382.01953125 195 c 6
 454.28125 508 l 6
 455.435546875 513 456.978515625 563 411.209960938 564 c 5
 443.76171875 705 l 5
 574.76171875 705 612.595703125 583 598.974609375 524 c 6
 523.01953125 195 l 6
 489.774414062 51 339.845703125 -5 279.845703125 -5 c 5
EndSplineSet
EndChar

StartChar: F
Encoding: 70 70 15
Width: 422
VWidth: 0
Flags: HW
HStem: 1 21G<32 173> 1 21G<32 173> 277 141<173 302> 560 140<173 396>
VStem: 32 141<1 277 418 560>
LayerCount: 2
Back
Fore
SplineSet
398.502929688 418 m 1xb8
 365.950195312 277 l 1
 236.950195312 277 l 1
 173.23046875 1 l 1
 32.23046875 1 l 1
 193.607421875 700 l 1
 557.607421875 700 l 1
 525.286132812 560 l 1
 302.286132812 560 l 1
 269.502929688 418 l 1
 398.502929688 418 l 1xb8
EndSplineSet
EndChar

StartChar: H
Encoding: 72 72 16
Width: 458
VWidth: 0
Flags: HW
HStem: 0 21G<32 173 285 426> 0 21G<32 173 285 426> 680 20G<32 173 285 426>
VStem: 32 170<283 421> 32 141<0 283 421 700> 256 170<283 421> 285 141<0 283 421 700>
LayerCount: 2
Back
Fore
SplineSet
299.1953125 421 m 1xb0
 267.3359375 283 l 1xb0
 238.3359375 283 l 1
 173 0 l 1
 32 0 l 1
 193.607421875 700 l 1
 334.607421875 700 l 1
 270.1953125 421 l 1xa8
 299.1953125 421 l 1xb0
446.607421875 700 m 1xa2
 587.607421875 700 l 1
 426 0 l 1
 285 0 l 1
 350.3359375 283 l 1xa2
 321.3359375 283 l 1
 353.1953125 421 l 1xa4
 382.1953125 421 l 1
 446.607421875 700 l 1xa2
EndSplineSet
EndChar

StartChar: Q
Encoding: 81 81 17
Width: 500
VWidth: 0
Flags: HW
HStem: 564 141<182.089 223 277 317.65>
VStem: 26 141<156.794 549.004> 333 141<153.204 548.717>
LayerCount: 2
Back
Fore
SplineSet
220.845703125 -5 m 1
 160.845703125 -5 37.7744140625 51 71.01953125 195 c 2
 146.974609375 524 l 2
 160.827148438 584 253.76171875 705 385.76171875 705 c 1
 353.209960938 564 l 1
 306.978515625 563 285.435546875 513 284.28125 508 c 2
 212.01953125 195 l 2
 201.399414062 149 248.62890625 137 253.62890625 137 c 1
 220.845703125 -5 l 1
415.850585938 47 m 1
 452.612304688 -32 l 1
 323.296875 -107 l 1
 275.845703125 -5 l 1
 308.62890625 137 l 1
 313.62890625 137 366.399414062 149 378.01953125 195 c 2
 450.28125 508 l 2
 451.435546875 513 452.978515625 563 407.209960938 564 c 1
 439.76171875 705 l 1
 570.76171875 705 608.595703125 583 594.974609375 524 c 2
 519.01953125 195 l 2
 503.3203125 127 462.23828125 79 415.850585938 47 c 1
EndSplineSet
EndChar

StartChar: G
Encoding: 71 71 18
Width: 493
VWidth: 0
Flags: HW
HStem: -5 141<181.632 222 276 306.977> 685 20G<156 222 276 322.5>
VStem: 26 141<153.868 550.439> 276 185<223 353> 319 142<148.928 223 516 551.684>
LayerCount: 2
Back
Fore
SplineSet
406.209960938 564 m 1xf0
 438.76171875 705 l 1xf0
 531.76171875 705 602.291015625 612 580.127929688 516 c 1xe8
 430.353515625 465 l 1
 437.279296875 495 l 2
 440.51171875 509 443.051757812 520 440.822265625 532 c 0
 436.131835938 555 406.209960938 564 406.209960938 564 c 1xf0
542.49609375 353 m 1
 501.6328125 176 l 2xe8
 482.932617188 95 357.076171875 -4 274.845703125 -5 c 1
 307.3984375 136 l 1xf0
 313.3984375 136 354.784179688 155 362.865234375 190 c 2
 370.483398438 223 l 1xe8
 327.483398438 223 l 1
 357.49609375 353 l 1
 542.49609375 353 l 1
220.845703125 -5 m 1
 160.845703125 -5 37.08203125 48 70.3271484375 192 c 1
 146.974609375 524 l 1
 169.981445312 589 252.76171875 705 384.76171875 705 c 1
 352.209960938 564 l 1
 305.978515625 563 285.435546875 513 284.28125 508 c 1
 211.327148438 192 l 2
 201.70703125 146 248.3984375 136 253.3984375 136 c 1
 220.845703125 -5 l 1
EndSplineSet
EndChar

StartChar: S
Encoding: 83 83 19
Width: 497
VWidth: 0
Flags: HW
HStem: 680 20G<190.5 216 271 324>
VStem: 41 134<467.373 556.768> 333 141<146.862 253.417>
LayerCount: 2
Back
Fore
SplineSet
377.607421875 700 m 5
 347.1328125 568 l 5
 324.748046875 562 298.9765625 537 293.435546875 513 c 4
 277.966796875 446 379.197265625 434 436.961914062 394 c 4
 489.650390625 358 545.799804688 311 522.250976562 209 c 4
 496.163085938 96 378.307617188 -3 270.307617188 -3 c 5
 300.3203125 127 l 5
 325.012695312 130 367.629882812 150 379.866210938 203 c 4
 397.181640625 278 291.875 294 238.5703125 323 c 4
 175.419921875 357 134.040039062 403 158.28125 508 c 4
 190.372070312 647 326.376953125 699 377.607421875 700 c 5
432.607421875 700 m 5
 538.607421875 700 575.981445312 589 573.669921875 553 c 5
 433.743164062 510 l 5
 439.59375 557 402.1328125 568 402.1328125 568 c 5
 432.607421875 700 l 5
215.307617188 -3 m 5
 106.307617188 -3 57.779296875 103 69.4775390625 158 c 5
 206.866210938 203 l 5
 195.9375 147 245.3203125 127 245.3203125 127 c 5
 215.307617188 -3 l 5
EndSplineSet
EndChar

StartChar: V
Encoding: 86 86 20
Width: 508
VWidth: 0
Flags: HW
HStem: 0 21G<223.2 282.709> 0 21G<223.2 282.709> 680 20G<26 175.867 332.086 482>
LayerCount: 2
Back
Fore
SplineSet
187.607421875 700 m 1xa0
 331.607421875 700 l 1
 365.477539062 158 l 1
 276 0 l 1
 229 0 l 1
 187.607421875 700 l 1xa0
643.607421875 700 m 5
 573.364257812 569 500.2734375 430 425.952148438 290 c 1
 415.952148438 290 l 1
 401.666015625 514 l 1
 499.607421875 700 l 5
 643.607421875 700 l 5
EndSplineSet
EndChar

StartChar: W
Encoding: 87 87 21
Width: 725
VWidth: 0
Flags: HW
HStem: 0 21G<223.2 282.582 436.2 495.582> 0 21G<223.2 282.582 436.2 495.582> 680 20G<26 175.83 239 388.83 549.086 699>
LayerCount: 2
Back
Fore
SplineSet
187.607421875 700 m 1xa0
 331.607421875 700 l 1
 364.477539062 158 l 1
 276 0 l 1
 229 0 l 1
 187.607421875 700 l 1xa0
400.607421875 700 m 1
 544.607421875 700 l 1
 577.477539062 158 l 1
 489 0 l 1
 442 0 l 1
 400.607421875 700 l 1
860.607421875 700 m 1
 642.952148438 290 l 1
 632.952148438 290 l 1
 618.666015625 514 l 1
 716.607421875 700 l 1
 860.607421875 700 l 1
EndSplineSet
EndChar

StartChar: N
Encoding: 78 78 22
Width: 509
VWidth: 0
Flags: HW
HStem: 0 21G<32 173 397.566 477> 0 21G<32 173 397.566 477> 680 20G<32 159.406 336 477>
VStem: 32 141<0 278> 336 141<498 700>
LayerCount: 2
Back
Fore
SplineSet
32 0 m 1xb8
 145.586914062 492 l 1
 153.586914062 492 l 1
 237.181640625 278 l 1
 173 0 l 1
 32 0 l 1xb8
638.607421875 700 m 1
 542.56640625 284 l 1
 534.56640625 284 l 1
 450.97265625 498 l 1
 497.607421875 700 l 1
 638.607421875 700 l 1
193.607421875 700 m 1
 308.607421875 700 l 1
 515.786132812 168 l 1
 477 0 l 1
 410 0 l 1
 172.368164062 608 l 1
 193.607421875 700 l 1
EndSplineSet
EndChar

StartChar: one
Encoding: -1 49 23
Width: 309
VWidth: 0
Flags: HMW
LayerCount: 2
Back
Fore
SplineSet
99 499 m 1
 43 444 l 1
 43 645 l 1
 99 701 l 1
 104 701 l 1
 226 701 l 1
 226 -0 l 1
 99 -0 l 1
 99 499 l 1
EndSplineSet
Validated: 1
EndChar

StartChar: two
Encoding: -1 50 24
Width: 515
VWidth: 0
Flags: HMW
LayerCount: 2
Back
Fore
SplineSet
464 127 m 1
 464 0 l 1
 63 0 l 1
 63 127 l 1
 464 127 l 1
209 703 m 1
 209 577 l 2
 208 577 161 561 161 499 c 1
 43 524 l 1
 52 608 114 691 209 703 c 1
264 578 m 1
 264 704 l 1
 266 704 269 704 271 704 c 0
 425 704 471 573 472 500 c 0
 472 499 472 498 472 497 c 0
 472 393 411 364 352 319 c 0
 281 265 247 235 210 186 c 1
 70 186 l 1
 135 306 232 363 262 388 c 0
 306 424 353 438 354 500 c 0
 354 501 354 501 354 502 c 0
 354 552 319 576 264 578 c 1
209 577 m 2
 209 577 209 577 209 577 c 2
 209 577 209 577 209 577 c 2
 209 577 l 2
EndSplineSet
Validated: 1
EndChar

StartChar: four
Encoding: 52 52 25
Width: 483
VWidth: 0
Flags: HW
HStem: 0 21G<273 403> 0 21G<273 403> 145 127<170 216 403 457> 681 20G<273 403>
VStem: 26 190<145 272> 273 184<145 272> 273 130<0 145 272 701>
LayerCount: 2
Back
Fore
SplineSet
278.795898438 272 m 1x38
 249.475585938 145 l 1
 59.4755859375 145 l 1
 88.7958984375 272 l 1
 354.059570312 598 l 1
 297.03515625 351 l 1
 232.795898438 272 l 1
 278.795898438 272 l 1x38
519.795898438 272 m 1xbc
 490.475585938 145 l 1xbc
 436.475585938 145 l 1
 403 0 l 1
 273 0 l 1
 434.838867188 701 l 1
 564.838867188 701 l 1
 465.795898438 272 l 1xba
 519.795898438 272 l 1xbc
EndSplineSet
EndChar

StartChar: X
Encoding: 88 88 26
Width: 464
VWidth: 0
Flags: HW
HStem: 0 21G<26 178.305 285.695 438> 0 21G<26 178.305 285.695 438> 680 20G<38 182.5 281.5 426>
LayerCount: 2
Back
Fore
SplineSet
587.607421875 700 m 1xa0
 385.34375 361 l 1
 438 0 l 1
 293 0 l 1
 270.5546875 167 l 1
 171 0 l 1
 26 0 l 1
 245.34375 361 l 1
 199.607421875 700 l 1
 336.607421875 700 l 1
 358.515625 548 l 1
 450.607421875 700 l 1
 587.607421875 700 l 1xa0
EndSplineSet
EndChar

StartChar: Y
Encoding: 89 89 27
Width: 479
VWidth: 0
Flags: HW
HStem: 0 21G<157 303> 0 21G<157 303> 680 20G<26 178.817 302.222 453>
VStem: 157 146<0 276.513>
LayerCount: 2
Back
Fore
SplineSet
187.607421875 700 m 1xb0
 334.607421875 700 l 1
 361.409179688 253 l 1
 303 0 l 1
 157 0 l 1
 215.178710938 252 l 1
 187.607421875 700 l 1xb0
399.440429688 565 m 1
 469.607421875 700 l 1
 614.607421875 700 l 1
 417.03125 312 l 1
 399.440429688 565 l 1
EndSplineSet
EndChar

StartChar: Z
Encoding: 90 90 28
Width: 418
VWidth: 0
Flags: HW
HStem: 0 144<182 392> 560 140<26 236>
VStem: 26 366<0 141 563 700>
LayerCount: 2
Back
Fore
SplineSet
215.245117188 144 m 1
 425.245117188 144 l 1
 392 0 l 1
 26 0 l 1
 58.552734375 141 l 1
 365.286132812 560 l 1
 155.286132812 560 l 1
 187.607421875 700 l 1
 553.607421875 700 l 1
 521.978515625 563 l 1
 215.245117188 144 l 1
EndSplineSet
EndChar

StartChar: one
Encoding: 49 49 30
Width: 266
VWidth: 0
Flags: HW
HStem: 0 21G<106 236> 0 21G<106 236> 679 20G<80.2373 236> 679 20G<80.2373 236>
VStem: 30 206<499 640> 106 130<0 499>
LayerCount: 2
Back
Fore
SplineSet
221.203125 499 m 1xa4
 131.3515625 439 l 1
 177.755859375 640 l 1xa8
 267.376953125 699 l 1
 397.376953125 699 l 5
 236 0 l 5
 106 0 l 1
 221.203125 499 l 1xa4
EndSplineSet
EndChar

StartChar: at
Encoding: 64 64 31
Width: 803
VWidth: 0
Flags: HW
HStem: -87 109<300.204 550.944> 116 403<326.752 430.629> 116 124<513.276 612.9> 602 113<332.9 548.025>
VStem: 16.2998 120<186.531 415.251> 205.45 339.85<240.742 368.516> 665.95 120.35<304.625 493.205>
LayerCount: 2
Back
SplineSet
691 142 m 5xbe
 736 64 l 5
 661 2 552 -22 422 -22 c 4
 186 -22 30 133 30 354 c 4
 30 581 221 757 477 757 c 4
 650 757 827 632 827 457 c 4
 827 246 689 161 555 161 c 4xbe
 512 163 491 182 481 206 c 5
 463 184 426 161 367 161 c 4
 284 161 219 223 219 319 c 4
 219 491 347 564 432 564 c 4xde
 496 564 518 538 533 522 c 5
 541 549 l 5
 636 549 l 5
 575 330 l 6
 572 319 568 302 568 288 c 4
 568 271 573 262 589 262 c 4
 657 262 718 325 718 457 c 4
 718 575 577 653 478 653 c 4
 272 653 134 510 134 352 c 4
 134 187 258 75 424 75 c 4
 567 75 645 112 691 142 c 5xbe
EndSplineSet
Fore
SplineSet
690.479492188 103 m 1xbe
 719.770507812 12 l 1
 647.611328125 -45 517.614257812 -87 402.9140625 -87 c 0
 175.333984375 -87 27.1943359375 46.998046875 87.6376953125 309 c 0
 139.314453125 532.998046875 356.3203125 715 613.370117188 715 c 0
 774.940429688 715 927.590820312 612 881.41796875 412 c 0
 832.704101562 201 681.240234375 116 559.080078125 116 c 0xbe
 521.033203125 116 494.928710938 137 490.469726562 161 c 1
 471.390625 139 434.080078125 116 371.080078125 116 c 0
 295.080078125 116 250.0078125 193 272.170898438 289 c 0
 307.956054688 444 447.120117188 519 529.120117188 519 c 0xde
 593.120117188 519 609.118164062 493 620.423828125 477 c 1
 634.657226562 504 l 1
 717.887695312 504 l 1
 622.70703125 308 l 2
 617.466796875 297 609.943359375 280 606.7109375 266 c 0
 602.786132812 249 605.208007812 240 618.868164062 240 c 0
 653.948242188 240 730.59375 280 761.068359375 412 c 0
 788.310546875 530 688.381835938 602 590.282226562 602 c 0
 423.282226562 602 247.34765625 481 208.331054688 312 c 0
 164.465820312 122 265.079101562 22 419.079101562 22 c 0
 506.079101562 22 597.850585938 47 690.479492188 103 c 1xbe
EndSplineSet
EndChar

StartChar: two
Encoding: 50 50 32
Width: 480
VWidth: 0
Flags: HW
HStem: 0 127<43 447> 574 126<164.168 190 245 304.811>
VStem: 330 123<439.165 552.734>
LayerCount: 2
Back
Fore
SplineSet
476.3203125 127 m 1
 447 0 l 1
 43 0 l 1
 72.3203125 127 l 1
 476.3203125 127 l 1
351.376953125 699 m 1
 322.287109375 573 l 2
 321.287109375 573 270.59375 557 256.279296875 495 c 1
 144.051757812 520 l 1
 172.444335938 604 253.606445312 687 351.376953125 699 c 1
377.518554688 574 m 1
 406.607421875 700 l 1
 408.607421875 700 411.607421875 700 413.607421875 700 c 0
 567.607421875 700 584.518554688 574 567.741210938 497 c 0
 567.510742188 496 567.279296875 495 567.048828125 494 c 0
 543.0390625 390 485.650390625 358 414.723632812 315 c 0
 332.1796875 265 284.561523438 232 238.325195312 179 c 1
 86.3251953125 179 l 1
 174.72265625 302 287.881835938 359 323.653320312 384 c 0
 375.1953125 421 428.965820312 433 444.279296875 495 c 0
 444.510742188 496 444.510742188 496 444.741210938 497 c 0
 456.28515625 547 432.056640625 572 377.518554688 574 c 1
322.287109375 573 m 2
 322.287109375 573 l 2
EndSplineSet
EndChar

StartChar: period
Encoding: -1 46 33
Width: 250
VWidth: 0
Flags: HMW
LayerCount: 2
Back
Fore
SplineSet
50 53 m 0
 50 95 83 129 125 129 c 0
 167 129 200 95 200 53 c 0
 200 11 167 -22 125 -22 c 0
 83 -22 50 11 50 53 c 0
EndSplineSet
Validated: 1
EndChar

StartChar: colon
Encoding: 58 58 34
Width: 250
VWidth: 0
Flags: HW
HStem: -5 151<71.75 178.25> 285 151<71.75 178.25>
VStem: 50 150<16.75 123.75 306.75 413.75>
LayerCount: 2
Back
Fore
SplineSet
66.1611328125 70 m 0
 75.857421875 112 116.70703125 146 158.70703125 146 c 0
 200.70703125 146 225.857421875 112 216.161132812 70 c 0
 206.463867188 28 165.845703125 -5 123.845703125 -5 c 0
 81.845703125 -5 56.4638671875 28 66.1611328125 70 c 0
133.112304688 360 m 0
 142.80859375 402 183.658203125 436 225.658203125 436 c 0
 267.658203125 436 292.80859375 402 283.112304688 360 c 0
 273.416015625 318 232.797851562 285 190.797851562 285 c 0
 148.797851562 285 123.416015625 318 133.112304688 360 c 0
EndSplineSet
EndChar

StartChar: quotedbl
Encoding: -1 34 35
Width: 407
VWidth: 0
Flags: HMW
LayerCount: 2
Back
Fore
SplineSet
177 465 m 1
 50 465 l 1
 50 736 l 1
 177 736 l 1
 177 465 l 1
357 465 m 1
 230 465 l 1
 230 736 l 1
 357 736 l 1
 357 465 l 1
EndSplineSet
Validated: 1
EndChar

StartChar: plus
Encoding: -1 43 36
Width: 475
VWidth: 0
Flags: HMW
LayerCount: 2
Back
Fore
SplineSet
425 357 m 1
 425 230 l 1
 300 230 l 1
 300 87 l 1
 173 87 l 1
 173 230 l 1
 50 230 l 1
 50 357 l 1
 173 357 l 1
 173 498 l 1
 300 498 l 1
 300 357 l 1
 425 357 l 1
EndSplineSet
Validated: 1
EndChar

StartChar: asterisk
Encoding: -1 42 37
Width: 591
VWidth: 0
Flags: HMW
LayerCount: 2
Back
Fore
SplineSet
352 94 m 1
 234 94 l 1
 234 237 l 1
 119 157 l 1
 50 253 l 1
 195 353 l 1
 50 459 l 1
 120 554 l 1
 234 471 l 1
 234 605 l 1
 351 605 l 1
 351 467 l 1
 471 556 l 1
 540 461 l 1
 393 354 l 1
 541 252 l 1
 472 156 l 1
 351 238 l 1
 352 94 l 1
EndSplineSet
Validated: 1
EndChar

StartChar: comma
Encoding: -1 44 38
Width: 265
VWidth: 0
Flags: HMW
LayerCount: 2
Back
Fore
SplineSet
178 -23 m 1
 51 -23 l 1
 88 129 l 1
 215 129 l 1
 178 -23 l 1
EndSplineSet
Validated: 1
EndChar

StartChar: copyright
Encoding: 169 169 39
Width: 859
VWidth: 0
Flags: W
HStem: -49 93<323.214 412 447 535.786> 112 89<380.502 412> 476 90<380.502 412> 636 90<315.99 412 447 543.01>
VStem: 50 89<229.778 447.758> 287 90<205.907 472.093> 720 89<229.778 447.758>
LayerCount: 2
Back
Fore
SplineSet
412 44 m 1
 412 -49 l 1
 240 -43 56 104 50 327 c 0
 50 331 50 335 50 339 c 0
 50 589 264 725 412 726 c 1
 412 636 l 1
 283 635 139 516 139 339 c 0
 139 337 139 334 139 332 c 0
 142 179 266 51 412 44 c 1
447 476 m 1
 447 566 l 1
 506 566 565 507 565 446 c 1
 477 413 l 1
 477 432 l 2
 477 441 477 448 474 456 c 0
 468 470 447 476 447 476 c 1
447 201 m 1
 447 201 468 207 474 222 c 0
 477 229 477 236 477 245 c 2
 477 264 l 1
 565 232 l 1
 565 171 506 112 447 112 c 1
 447 201 l 1
412 566 m 5
 412 476 l 5
 383 476 377 450 377 447 c 5
 377 231 l 5
 377 228 383 203 412 203 c 5
 412 112 l 5
 321 112 287 193 287 231 c 5
 287 447 l 5
 287 485 321 566 412 566 c 5
447 44 m 1
 593 51 717 179 720 332 c 0
 720 334 720 337 720 339 c 0
 720 516 576 635 447 636 c 1
 447 726 l 1
 595 725 809 589 809 339 c 0
 809 335 809 331 809 327 c 0
 803 104 619 -43 447 -49 c 1
 447 44 l 1
EndSplineSet
Validated: 1
EndChar

StartChar: registered
Encoding: 174 174 40
Width: 404
VWidth: 0
Flags: W
HStem: 354 42<132.516 191 211 272.484> 511 36<206 233.687> 591 37<206 232.21> 662 41<132.067 195 211 271.196>
VStem: 30 40<458.344 596.494> 151 39<430 627> 234 36<431 510.036 547.671 589.86> 334 40<462.559 598.781>
LayerCount: 2
Back
Fore
SplineSet
191 396 m 1
 192 354 l 1
 111 355 30 432 30 523 c 0
 30 524 30 524 30 525 c 0
 30 649 133 703 193 703 c 0
 194 703 194 703 195 703 c 1
 195 662 l 1
 136 662 70 609 70 526 c 0
 71 457 126 399 191 396 c 1
211 396 m 1
 276 399 332 456 334 525 c 0
 334 526 334 526 334 527 c 0
 334 608 270 662 211 662 c 1
 211 703 l 1
 277 702 374 641 374 528 c 0
 374 526 374 525 374 523 c 0
 374 423 288 357 211 354 c 1
 211 396 l 1
206 547 m 1
 210 547 l 2
 227 547 234 557 234 568 c 0
 234 582 224 591 210 591 c 2
 206 591 l 1
 206 628 l 1
 248 628 270 604 270 570 c 0
 270 551 264 538 251 530 c 1
 252 530 l 1
 262 522 269 506 270 492 c 2
 270 431 l 1
 235 431 l 1
 235 481 l 2
 235 504 226 511 206 511 c 1
 206 547 l 1
151 627 m 1
 190 627 l 1
 190 430 l 1
 151 430 l 1
 151 627 l 1
EndSplineSet
Validated: 1
EndChar

StartChar: a
Encoding: 97 97 41
Width: 435
VWidth: 0
Flags: HW
HStem: 1 112<129.768 180 229 263.822 385.452 410>
VStem: 26 101<115.641 182.856> 268 116<116.437 227 324.598 403.803>
LayerCount: 2
Back
Fore
SplineSet
347.8203125 519 m 1
 350.8203125 519 l 2
 453.8203125 519 481.887695312 424 471.729492188 380 c 0
 417.013671875 143 l 0
 415.859375 138 412.319335938 114 433.319335938 114 c 0
 436.319335938 114 l 1
 410.23046875 1 l 1
 407.23046875 1 l 0
 370.23046875 1 344.000976562 13 327.92578125 30 c 1
 300.770507812 12 268.23046875 1 232.23046875 1 c 2
 229.23046875 1 l 1
 255.087890625 113 l 1
 258.087890625 113 l 2
 288.319335938 114 301.70703125 146 302.399414062 149 c 0
 320.407226562 227 l 1
 277.328125 205 196.865234375 190 181.249023438 183 c 0
 174.556640625 180 166.940429688 173 164.400390625 162 c 0
 161.399414062 149 l 2
 156.782226562 129 163.087890625 113 189.087890625 113 c 2
 206.087890625 113 l 1
 180.23046875 1 l 1
 83.23046875 1 40.775390625 64 53.9345703125 121 c 2
 64.5546875 167 l 2
 72.173828125 200 86.7919921875 233 134.333007812 257 c 0
 183.104492188 282 339.799804688 311 349.03515625 351 c 0
 349.958007812 355 350.881835938 359 351.8046875 363 c 0
 357.345703125 387 359.270507812 404 324.962890625 407 c 0
 322.194335938 408 l 1
 347.8203125 519 l 1
274.962890625 407 m 1
 271.962890625 407 l 2
 248.501953125 405 228.0390625 390 219.49609375 353 c 0
 218.573242188 349 l 1
 122.807617188 389 l 1
 123.26953125 391 l 0
 139.661132812 462 229.8203125 519 297.8203125 519 c 0
 300.8203125 519 l 1
 274.962890625 407 l 1
EndSplineSet
EndChar

StartChar: period
Encoding: 46 46 42
Width: 250
VWidth: 0
Flags: HW
HStem: -22 151<71.75 178.25>
VStem: 50 150<-0.25 106.75>
LayerCount: 2
Back
Fore
SplineSet
62.236328125 53 m 0
 71.9326171875 95 112.782226562 129 154.782226562 129 c 0
 196.782226562 129 221.932617188 95 212.236328125 53 c 0
 202.5390625 11 161.920898438 -22 119.920898438 -22 c 0
 77.9208984375 -22 52.5390625 11 62.236328125 53 c 0
EndSplineSet
EndChar

StartChar: o
Encoding: 111 111 43
Width: 420
VWidth: 0
Flags: HW
HStem: -1 118<152.634 192 233 271.159> 398 118<152.894 192 233 270.899>
VStem: 28 120<119.657 394.936> 275 117<119.345 394.936>
LayerCount: 2
Back
Fore
SplineSet
114.806640625 376 m 0
 125.1953125 421 198.127929688 516 305.127929688 516 c 2
 311.127929688 516 l 1
 283.885742188 398 l 1
 277.885742188 398 l 0
 244.885742188 398 234.114257812 373 231.8046875 363 c 5
 183.553710938 154 l 1
 179.166992188 135 183.01171875 117 213.01171875 117 c 0
 219.01171875 117 l 1
 191.76953125 -1 l 1
 185.76953125 -1 l 0
 77.76953125 -1 50.39453125 97 60.552734375 141 c 0
 114.806640625 376 l 0
324.885742188 398 m 1
 352.127929688 516 l 1
 358.127929688 516 l 0
 461.127929688 516 489.1953125 421 478.806640625 376 c 0
 424.552734375 141 l 0
 414.163085938 96 342.76953125 -1 238.76953125 -1 c 0
 232.76953125 -1 l 1
 260.01171875 117 l 1
 266.01171875 117 l 0
 297.2421875 118 307.552734375 141 310.091796875 152 c 1
 358.8046875 363 l 1
 362.729492188 380 360.885742188 398 330.885742188 398 c 0
 324.885742188 398 l 1
EndSplineSet
EndChar

StartChar: quotedbl
Encoding: 34 34 44
Width: 359
VWidth: 0
Flags: HW
HStem: 465 271<26 153 206 333>
VStem: 26 127<465 736> 206 127<465 736>
LayerCount: 2
Back
Fore
SplineSet
260.353515625 465 m 1
 133.353515625 465 l 1
 195.918945312 736 l 1
 322.918945312 736 l 1
 260.353515625 465 l 1
440.353515625 465 m 1
 313.353515625 465 l 1
 375.918945312 736 l 1
 502.918945312 736 l 1
 440.353515625 465 l 1
EndSplineSet
EndChar

StartChar: plus
Encoding: 43 43 45
Width: 575
VWidth: 0
Flags: HW
HStem: 230 127<100 223 350 475>
VStem: 223 127<87 230 357 498>
LayerCount: 2
Back
Fore
SplineSet
557.419921875 357 m 1
 528.099609375 230 l 1
 403.099609375 230 l 1
 370.0859375 87 l 1
 243.0859375 87 l 1
 276.099609375 230 l 1
 153.099609375 230 l 1
 182.419921875 357 l 1
 305.419921875 357 l 1
 337.97265625 498 l 1
 464.97265625 498 l 1
 432.419921875 357 l 1
 557.419921875 357 l 1
EndSplineSet
EndChar

StartChar: asterisk
Encoding: 42 42 46
Width: 394
VWidth: 0
Flags: HW
HStem: 478 307<160 231> 517 21G<77.614 120.936 273.6 316.386>
VStem: 160 71<478 564 704 785>
LayerCount: 2
Back
Fore
SplineSet
341.35546875 478 m 1xa0
 270.35546875 478 l 1xa0
 290.209960938 564 l 1
 211.358398438 517 l 1x60
 183.518554688 574 l 1
 284.139648438 633 l 5
 209.530273438 691 l 1
 264.689453125 748 l 1
 322.53125 704 l 1
 341.231445312 785 l 1
 412.231445312 785 l 1
 393.069335938 702 l 1
 474.689453125 748 l 1
 503.530273438 691 l 1
 401.909179688 632 l 1
 475.056640625 572 l 1
 420.897460938 515 l 1
 361.440429688 565 l 1
 341.35546875 478 l 1xa0
EndSplineSet
EndChar

StartChar: comma
Encoding: 44 44 47
Width: 264
VWidth: 0
Flags: HW
HStem: -58 187<87 177>
VStem: 50 164
LayerCount: 2
Back
Fore
SplineSet
163.609375 -58 m 1
 36.609375 -58 l 1
 116.782226562 129 l 1
 243.782226562 129 l 1
 163.609375 -58 l 1
EndSplineSet
EndChar

StartChar: r
Encoding: 114 114 48
Width: 316
VWidth: 0
Flags: HW
HStem: 0 21G<36 160> 0 21G<36 160> 399 117<219.634 283>
VStem: 36 124<0 337.604 454 516>
LayerCount: 2
Back
Fore
SplineSet
155.127929688 516 m 5xb0
 279.127929688 516 l 1
 264.814453125 454 l 1
 292.047851562 481 348.127929688 516 403.127929688 516 c 0
 436.127929688 516 l 1
 380.193359375 395 l 1
 375.116210938 399 l 1
 307.885742188 398 236.416992188 331 222.565429688 271 c 0
 160 0 l 1
 36 0 l 5
 155.127929688 516 l 5xb0
EndSplineSet
EndChar

StartChar: f
Encoding: 102 102 49
Width: 304
VWidth: 0
Flags: HW
HStem: 0 21G<89 211> 0 21G<89 211> 400 116<26 89 211 277> 579 117<215.402 277>
VStem: 89 122<0 400 516 576.403>
LayerCount: 2
Back
Fore
SplineSet
216.439453125 552 m 0xb8
 226.828125 597 300.453125 695 403.684570312 696 c 2
 464.684570312 696 l 1
 410.672851562 579 l 1
 377.672851562 579 l 1
 349.44140625 578 339.131835938 555 338.439453125 552 c 0
 329.897460938 515 l 1
 396.127929688 516 l 1
 369.34765625 400 l 1
 303.34765625 400 l 1
 211 0 l 1
 89 0 l 1
 181.34765625 400 l 1
 118.34765625 400 l 1
 145.127929688 516 l 1
 208.127929688 516 l 1
 216.439453125 552 l 0xb8
EndSplineSet
EndChar

StartChar: g
Encoding: 103 103 50
Width: 415
VWidth: 0
Flags: HW
HStem: -181 112<53.6465 268.279> -1 110.271<156.548 192.212 231.211 269.822> 403 113<152.57 192.212 231.211 269.862>
VStem: 35 115.051<115.856 398.747> 231.211 157.789<3.19727 109.271 403 511.085> 272 117<-63.6779 3.19727 112.603 400.604 511.085 516>
LayerCount: 2
Back
Fore
SplineSet
194.708984375 -181 m 1xf4
 -15.6123046875 -181 l 1
 37.716796875 -69 l 1
 218.393554688 -69 l 1
 250.051757812 -68.0673828125 262.12890625 -42.7578125 262.765625 -40 c 0
 272.73828125 3.197265625 l 1xf4
 260.58984375 0.6279296875 247.693359375 -1 234.142578125 -1 c 0
 230.98046875 -1 l 1
 256.438476562 109.270507812 l 1xf8
 259.522460938 109.359375 l 0
 291.181640625 110.278320312 303.42578125 136.122070312 304.072265625 138.921875 c 0
 358.442382812 374.424804688 l 0xf4
 359.091796875 377.236328125 358.791992188 403 327.413085938 403 c 0
 324.250976562 403 l 1
 350.338867188 516 l 1xf8
 353.500976562 516 l 0
 366.977539062 516 379.408203125 514.223632812 389.993164062 511.084960938 c 1
 391.127929688 516 l 1
 508.127929688 516 l 1
 379.765625 -40 l 0
 369.741210938 -83.419921875 297.564453125 -179.978515625 194.708984375 -181 c 1xf4
308.177734375 516 m 0
 311.33984375 516 l 1
 285.251953125 403 l 1
 282.08984375 403 l 0
 249.594726562 403 237.166992188 377.33984375 236.530273438 374.5859375 c 0
 182.467773438 140.4140625 l 0
 181.857421875 137.768554688 183.447265625 112 214.907226562 112 c 0
 218.069335938 112 l 1
 191.981445312 -1 l 1
 188.819335938 -1 l 0
 83.6376953125 -1 57.2802734375 96.505859375 67.1767578125 139.37109375 c 0
 122.185546875 377.640625 l 1
 133.34375 421.5078125 204.02734375 516 308.177734375 516 c 0
EndSplineSet
EndChar

StartChar: i
Encoding: 105 105 51
Width: 199
VWidth: 0
Flags: HW
HStem: 0 21G<39 161> 0 21G<39 161> 496 20G<39 161> 558 145<47.5 150.5>
VStem: 26 146<579.375 681.5> 39 122<0 516>
LayerCount: 2
Back
Fore
SplineSet
317.447265625 630 m 0x38
 308.443359375 591 267.82421875 558 227.82421875 558 c 0
 187.82421875 558 162.443359375 591 171.447265625 630 c 0
 180.681640625 670 221.30078125 703 261.30078125 703 c 0
 301.30078125 703 326.681640625 670 317.447265625 630 c 0x38
161 0 m 1xb4
 39 0 l 1
 158.127929688 516 l 1
 280.127929688 516 l 1
 161 0 l 1xb4
EndSplineSet
EndChar

StartChar: e
Encoding: 101 101 52
Width: 424
VWidth: 0
Flags: HW
HStem: 0 21G<131.037 188.458 236.458 276.742> 0 21G<131.037 188.458 236.458 276.742> 207.5 116<148.458 283.458> 402.319 113.681<154.615 187.458 236.458 278.856>
VStem: 26.458 122<111.866 207.5 323.5 397.929> 283.458 114<323.5 398.09>
LayerCount: 2
Back
Fore
SplineSet
332.43359375 402.395507812 m 0xbc
 329.340820312 402.319335938 l 1
 355.5859375 516 l 1
 361.0859375 516 l 0
 430.926757812 516 501.426757812 450.33984375 484.716796875 377.958984375 c 0
 445.36328125 207.5 l 1
 196.36328125 207.5 l 1
 180.96484375 140.802734375 l 0
 180.259765625 137.75 180.5703125 108.975585938 208.092773438 108.131835938 c 0
 213.384765625 107.96875 l 1
 188.458007812 0 l 1
 182.958007812 0 l 0
 79.115234375 0 48.8212890625 96.8671875 59.125 141.49609375 c 0
 113.385742188 376.524414062 l 1
 124.749023438 421.155273438 199.243164062 516 301.0859375 516 c 0
 306.5859375 516 l 1
 279.897460938 400.401367188 l 1
 276.897460938 400.401367188 l 0
 247.799804688 400.401367188 236.166992188 379.908203125 233.540039062 368.529296875 c 0
 223.143554688 323.5 l 1
 358.143554688 323.5 l 1
 368.586914062 368.733398438 l 0
 374.71484375 395.27734375 352.712890625 402.891601562 332.43359375 402.395507812 c 0xbc
236.458007812 0 m 1
 262.020507812 110.724609375 l 1
 267.30078125 110.993164062 l 0
 298.330078125 112.571289062 324.717773438 132.319335938 333.661132812 153.103515625 c 0
 335.141601562 156.54296875 l 1
 425.731445312 120.118164062 l 1
 424.505859375 117.521484375 l 0
 394.421875 53.7734375 311.526367188 0 241.958007812 0 c 0
 236.458007812 0 l 1
EndSplineSet
EndChar

StartChar: d
Encoding: 100 100 53
Width: 414
VWidth: 0
Flags: HW
HStem: 0 118<149.874 210> 398 118<148.754 210> 678 20G<258 384>
VStem: 30 118<119.71 395.893> 258 126<0 698>
LayerCount: 2
Back
Fore
SplineSet
299.127929688 516 m 0
 329.127929688 516 l 1
 301.885742188 398 l 1
 271.885742188 398 l 1
 244.654296875 397 234.575195312 375 234.114257812 373 c 0
 181.013671875 143 l 1
 180.552734375 141 181.2421875 118 209.2421875 118 c 0
 237.2421875 118 l 1
 210 0 l 1
 182 0 l 0
 78 0 52.39453125 97 62.552734375 141 c 0
 117.037109375 377 l 1
 128.426757812 422 198.127929688 516 299.127929688 516 c 0
384 0 m 1
 258 0 l 1
 419.146484375 698 l 1
 545.146484375 698 l 1
 384 0 l 1
EndSplineSet
EndChar

StartChar: h
Encoding: 104 104 54
Width: 421
VWidth: 0
Flags: HW
HStem: 678 20G<29.6211 144.397>
VStem: 29.6211 163.566<399.129 505.36> 29.6211 115<1.18457 391.475 505.36 698> 281 114<1.04688 393.204>
LayerCount: 2
Back
Fore
SplineSet
144.89453125 1.1845703125 m 1xb0
 29.89453125 1.1845703125 l 1
 190.767578125 698 l 1xb0
 305.543945312 698 l 1
 261.069335938 505.360351562 l 1
 263.889648438 506.07421875 l 0
 276.202148438 509.051757812 293.666015625 510.741210938 307.948242188 511.146484375 c 0
 311.216796875 511.239257812 l 1
 285.333984375 399.12890625 l 1xd0
 282.404296875 398.889648438 l 0
 249.797851562 396.229492188 230.057617188 370.065429688 228.90234375 365.061523438 c 0
 144.89453125 1.1845703125 l 1xb0
355.971679688 511.116210938 m 1
 359.217773438 510.999023438 l 2
 455.29296875 507.415039062 497.374023438 443.432617188 481.302734375 373.819335938 c 0
 395.241210938 1.046875 l 1
 281.241210938 1.046875 l 1
 365.249023438 364.923828125 l 0
 366.25 369.2578125 365.793945312 395.95703125 332.90625 398.75390625 c 0
 330.086914062 398.993164062 l 1
 355.971679688 511.116210938 l 1
EndSplineSet
EndChar

StartChar: j
Encoding: 106 106 55
Width: 194
VWidth: 0
Flags: HW
HStem: -181 117<-22.5947 34.5596> 496 20G<36.7842 158.784> 555.675 145.65<45.9177 148.65>
VStem: 24.459 145.65<577.134 679.866> 36.7842 122<-60.0094 516>
LayerCount: 2
Back
Fore
SplineSet
150.126953125 -37.5 m 0xe8
 139.1640625 -84.9833984375 67.3662109375 -181 -34.5029296875 -181 c 2
 -91.787109375 -181 l 1
 -37.3701171875 -64 l 1
 -10.5771484375 -64 l 1
 17.509765625 -63.12890625 27.6484375 -39.572265625 28.126953125 -37.5 c 0
 155.912109375 516 l 1
 277.912109375 516 l 1
 150.126953125 -37.5 l 0xe8
315.209960938 628.5 m 0xf0
 306.00390625 588.624023438 265.448242188 555.674804688 225.572265625 555.674804688 c 0
 185.6953125 555.674804688 160.353515625 588.624023438 169.559570312 628.5 c 0
 178.765625 668.375976562 219.321289062 701.325195312 259.198242188 701.325195312 c 0
 299.07421875 701.325195312 324.416015625 668.375976562 315.209960938 628.5 c 0xf0
EndSplineSet
EndChar

StartChar: l
Encoding: 108 108 56
Width: 184
VWidth: 0
Flags: HW
HStem: 0 21G<30 161> 0 21G<30 161> 678 20G<30 161>
VStem: 30 131<0 698>
LayerCount: 2
Back
Fore
SplineSet
161 0 m 1xb0
 30 0 l 1
 191.146484375 698 l 1
 322.146484375 698 l 1
 161 0 l 1xb0
EndSplineSet
EndChar

StartChar: hyphen
Encoding: -1 45 57
Width: 416
VWidth: 0
Flags: HMW
LayerCount: 2
Back
Fore
SplineSet
366 357 m 1
 366 230 l 1
 50 230 l 1
 50 357 l 1
 366 357 l 1
EndSplineSet
Validated: 1
EndChar

StartChar: slash
Encoding: -1 47 58
Width: 401
VWidth: 0
Flags: HMW
LayerCount: 2
Back
Fore
SplineSet
50 -23 m 1
 225 716 l 1
 351 716 l 1
 177 -23 l 1
 50 -23 l 1
EndSplineSet
Validated: 1
EndChar

StartChar: u
Encoding: 117 117 59
Width: 434
VWidth: 0
Flags: HW
HStem: -5 121<157.794 196 238 276.206> 494 20G<30 154 280 404>
VStem: 30 124<119.782 514> 280 124<120.563 514>
LayerCount: 2
Back
Refer: 12 85 S 0.731558 0 0 0.730289 -27.5779 5.47717 2
Refer: 12 85 N 0.731558 0 0 0.730289 -27.5779 5.47717 2
Refer: 12 85 N 0.731558 0 0 0.730289 -27.5779 5.47717 2
Fore
SplineSet
264.780273438 116 m 5
 269.780273438 116 l 6
 300.780273438 116 312.321289062 140 312.783203125 142 c 5
 398.666015625 514 l 5
 522.666015625 514 l 5
 435.62890625 137 l 4
 425.240234375 92 348.845703125 -5 241.845703125 -5 c 4
 236.845703125 -5 l 5
 264.780273438 116 l 5
148.666015625 514 m 5
 272.666015625 514 l 5
 186.783203125 142 l 5
 186.090820312 139 186.780273438 116 217.780273438 116 c 4
 222.780273438 116 l 5
 194.845703125 -5 l 5
 189.845703125 -5 l 4
 82.845703125 -5 50.546875 89 61.62890625 137 c 4
 148.666015625 514 l 5
EndSplineSet
EndChar

StartChar: m
Encoding: 109 109 60
Width: 684
VWidth: 0
Flags: HW
HStem: 0 21G<30 154 280 404 530 654> 0 21G<30 154 280 404 530 654> 398 121<156.381 195 237 277.841 406.159 447 488 526.912>
VStem: 30 124<0 394.218> 280 124<0 395.772> 530 124<0 395.858>
CounterMasks: 1 1c
LayerCount: 2
Back
Fore
SplineSet
239.8828125 372 m 1xbc
 154 0 l 1
 30 0 l 1
 117.037109375 377 l 0
 128.119140625 425 203.8203125 519 308.8203125 519 c 0
 314.8203125 519 l 1
 286.885742188 398 l 1
 280.885742188 398 l 0
 250.885742188 398 240.344726562 374 239.8828125 372 c 1xbc
615.8828125 372 m 1
 616.575195312 375 615.885742188 398 585.885742188 398 c 2
 579.885742188 398 l 1
 607.8203125 519 l 1
 613.8203125 519 l 0
 719.8203125 519 751.426757812 422 741.037109375 377 c 0
 654 0 l 1
 530 0 l 1
 615.8828125 372 l 1
280 0 m 1
 365.8828125 372 l 2
 366.575195312 375 364.885742188 398 334.885742188 398 c 0
 328.885742188 398 l 1
 356.8203125 519 l 1
 362.8203125 519 l 0
 404.8203125 519 433.588867188 505 454.202148438 486 c 1
 483.819335938 506 518.8203125 519 560.8203125 519 c 0
 566.8203125 519 l 1
 538.885742188 398 l 1
 532.885742188 398 l 0
 501.885742188 398 490.344726562 374 489.8828125 372 c 1
 404 0 l 1
 280 0 l 1
EndSplineSet
EndChar

StartChar: six
Encoding: 54 54 61
Width: 497
VWidth: 0
Flags: HW
HStem: -1 125<189.637 228 282 328.105> 307 118<186.133 228 283 325.723> 573 125<197.222 228 282 342.421>
VStem: 26 124<399 517.547> 356 115<152.501 278.84>
LayerCount: 2
Back
Fore
SplineSet
380.119140625 425 m 1
 504.119140625 425 546.494140625 327 519.250976562 209 c 0
 490.392578125 84 383 0 281.76953125 -1 c 1
 310.396484375 123 l 1
 346.3203125 127 392.708007812 159 404.020507812 208 c 0
 422.952148438 290 372.18359375 304 354.337890625 309 c 1
 380.119140625 425 l 1
478.9765625 537 m 1
 468.055664062 559 453.287109375 573 425.287109375 573 c 0
 421.287109375 573 418.287109375 573 414.287109375 573 c 1
 443.146484375 698 l 1
 521.146484375 698 567.142578125 659 588.520507812 600 c 1
 478.9765625 537 l 1
388.915039062 697 m 1
 360.056640625 572 l 1
 295.440429688 565 253.428710938 448 242.116210938 399 c 1
 264.579101562 414 296.119140625 425 326.119140625 425 c 1
 298.876953125 307 l 1
 298.876953125 307 297.876953125 307 297.876953125 307 c 0
 276.72265625 302 226.028320312 286 208.250976562 209 c 0
 199.248046875 170 219.55078125 128 256.627929688 124 c 1
 227.76953125 -1 l 1
 52.76953125 -1 68.94140625 186 108.650390625 358 c 0
 135.662109375 475 210.8359375 675 388.915039062 697 c 1
EndSplineSet
EndChar

StartChar: p
Encoding: 112 112 62
Width: 422
VWidth: 0
Flags: HW
HStem: 0 118<203 271.49> 398 118<196 274.73>
VStem: 30 125<-182 516> 276 120<120.581 391.421>
LayerCount: 2
Back
Fore
SplineSet
232 0 m 0
 203 0 l 1
 230.2421875 118 l 1
 261.2421875 118 l 1
 298.473632812 119 306.936523438 134 309.013671875 143 c 0
 361.8828125 372 l 1
 364.883789062 385 349.885742188 398 319.885742188 398 c 0
 287.885742188 398 l 1
 315.127929688 516 l 1
 347.127929688 516 l 0
 454.127929688 516 495.50390625 431 482.575195312 375 c 4
 428.090820312 139 l 1
 415.854492188 86 345 0 232 0 c 0
149.127929688 516 m 1
 274.127929688 516 l 1
 112.982421875 -182 l 1
 -12.017578125 -182 l 1
 149.127929688 516 l 1
EndSplineSet
EndChar

StartChar: b
Encoding: 98 98 63
Width: 414
VWidth: 0
Flags: HW
HStem: 0 118<203 267.865> 398 118<203 267.573> 679 20G<30 155> 679 20G<30 155>
VStem: 30 125<0 699> 270 118<119.71 395.893>
LayerCount: 2
Back
Fore
SplineSet
30 0 m 1xec
 191.376953125 699 l 1
 316.376953125 699 l 1
 155 0 l 1
 30 0 l 1xec
356.114257812 373 m 1
 356.575195312 375 355.654296875 397 328.885742188 398 c 2
 294.885742188 398 l 1
 322.127929688 516 l 1
 355.127929688 516 l 0
 457.127929688 516 484.426757812 422 475.037109375 377 c 1
 420.552734375 141 l 0
 410.39453125 97 339 0 236 0 c 0
 203 0 l 1
 230.2421875 118 l 1
 263.2421875 118 l 0
 291.2421875 118 302.783203125 142 303.013671875 143 c 1
 356.114257812 373 l 1
EndSplineSet
EndChar

StartChar: c
Encoding: 99 99 64
Width: 418
VWidth: 0
Flags: HW
HStem: -1 117<153.936 199 243 276.754> 496 20G<132.5 191 233 275.5>
VStem: 30 119<119.71 398.182>
LayerCount: 2
Back
Fore
SplineSet
354.422851562 383 m 1
 352.654296875 397 331.116210938 399 331.116210938 399 c 0
 330.116210938 399 329.116210938 399 328.116210938 399 c 0
 325.116210938 399 l 1
 352.127929688 516 l 1
 358.127929688 516 l 0
 431.127929688 516 484.428710938 448 467.806640625 376 c 0
 466.8828125 372 l 1
 346.186523438 330 l 1
 353.112304688 360 l 0
 355.420898438 370 356.575195312 375 354.422851562 383 c 1
242.76953125 -1 m 1
 269.780273438 116 l 1
 275.780273438 116 l 1
 277.780273438 116 299.473632812 119 307.474609375 132 c 1
 313.321289062 140 314.70703125 146 317.015625 156 c 0
 323.94140625 186 l 1
 425.245117188 144 l 1
 424.321289062 140 l 0
 407.69921875 68 322.76953125 -1 249.76953125 -1 c 0
 242.76953125 -1 l 1
117.037109375 377 m 1
 128.1953125 421 199.127929688 516 304.127929688 516 c 2
 310.127929688 516 l 1
 283.34765625 400 l 1
 277.34765625 400 l 0
 246.34765625 400 236.037109375 377 235.575195312 375 c 0
 181.552734375 141 l 0
 181.090820312 139 180.549804688 115 220.549804688 115 c 0
 225.319335938 114 l 1
 199 0 l 1
 194 0 l 0
 79 0 52.39453125 97 62.552734375 141 c 0
 117.037109375 377 l 1
EndSplineSet
EndChar

StartChar: q
Encoding: 113 113 65
Width: 416
VWidth: 0
Flags: HW
HStem: 0 118<150.139 219> 398 118<149.872 214.466>
VStem: 26 120<122.968 393.383> 261.824 124.176<-182 516>
LayerCount: 2
Back
Fore
SplineSet
179.120117188 143.45703125 m 0
 178.724609375 141.74609375 178.1328125 118.8515625 215.452148438 118 c 2
 246.2421875 118 l 1
 219 0 l 1
 189.5 0 l 0
 76.7236328125 0 48.732421875 93.8779296875 58.201171875 139.4765625 c 1
 112.4609375 374.50390625 l 0
 122.752929688 419.083007812 194.770507812 516 302.181640625 516 c 0
 333.59375 516 l 1
 306.3515625 398 l 1
 274.939453125 398 l 0
 243.393554688 398 232.524414062 374.322265625 232.006835938 372.536132812 c 1
 179.120117188 143.45703125 l 0
504.127929688 516 m 5
 343.982421875 -182 l 1
 219.805664062 -182 l 1
 380.0625 516 l 1
 504.127929688 516 l 5
EndSplineSet
EndChar

StartChar: t
Encoding: 116 116 66
Width: 324
VWidth: 0
Flags: HW
HStem: 0 125<216.027 271> 398 118<26 89 211 271> 680 20G<89 211>
VStem: 89 122<127.239 398 516 700>
LayerCount: 2
Back
Fore
SplineSet
272.858398438 125 m 2
 299.858398438 125 l 1
 298 0 l 1
 243 0 l 2
 121.23046875 1 104.237304688 66 127.786132812 168 c 2
 180.885742188 398 l 1
 117.885742188 398 l 1
 145.127929688 516 l 1
 208.127929688 516 l 1
 250.607421875 700 l 1
 372.607421875 700 l 1
 330.127929688 516 l 1
 390.127929688 516 l 1
 362.885742188 398 l 1
 302.885742188 398 l 1
 247.708007812 159 l 2
 244.475585938 145 245.08984375 126 272.858398438 125 c 2
EndSplineSet
EndChar

StartChar: v
Encoding: 118 118 67
Width: 400
VWidth: 0
Flags: HW
HStem: 0 21G<167.864 250.167> 0 21G<167.864 250.167> 496 20G<16 157.818 262.934 400>
LayerCount: 2
Back
Fore
SplineSet
174 0 m 1xa0
 134.897460938 515 l 1
 270.127929688 516 l 1
 313.704101562 120 l 1
 243 0 l 1
 174 0 l 1xa0
388.127929688 516 m 1
 518.897460938 515 l 1
 356.020507812 208 l 1
 344.020507812 208 l 1
 322.961914062 394 l 1
 388.127929688 516 l 1
EndSplineSet
EndChar

StartChar: w
Encoding: 119 119 68
Width: 577
VWidth: 0
Flags: HW
HStem: 0 21G<154.097 228.5 341.864 418.167> 0 21G<154.097 228.5 341.864 418.167> 496 20G<8 149.909 190 334.111 437.098 569>
LayerCount: 2
Back
Fore
SplineSet
160 0 m 1xa0
 126.897460938 515 l 1
 263.127929688 516 l 1
 288.704101562 120 l 1
 222 0 l 1
 160 0 l 1xa0
348 0 m 1
 308.897460938 515 l 1
 447.127929688 516 l 1
 476.704101562 120 l 1
 412 0 l 1
 348 0 l 1
562.127929688 516 m 1
 687.897460938 515 l 1
 519.020507812 208 l 1
 511.020507812 208 l 1
 497.961914062 394 l 1
 562.127929688 516 l 1
EndSplineSet
EndChar

StartChar: x
Encoding: 120 120 69
Width: 381
VWidth: 0
Flags: HW
HStem: 0 21G<18 152.048 247.952 382> 0 21G<18 152.048 247.952 382> 496 19G<22 156.06 243.034 378>
LayerCount: 2
Back
Fore
SplineSet
192.487304688 262 m 1xa0
 141.127929688 516 l 1
 266.127929688 516 l 1
 292.116210938 399 l 1
 370.897460938 515 l 1
 496.897460938 515 l 1
 329.487304688 262 l 1
 382 0 l 1
 257 0 l 1
 229.08984375 126 l 1
 143 0 l 1
 18 0 l 1
 192.487304688 262 l 1xa0
EndSplineSet
EndChar

StartChar: hyphen
Encoding: 45 45 70
Width: 516
VWidth: 0
Flags: HW
HStem: 230 127<100 416>
VStem: 100 316<230 357>
LayerCount: 2
Back
Fore
SplineSet
498.419921875 357 m 1
 469.099609375 230 l 1
 153.099609375 230 l 1
 182.419921875 357 l 1
 498.419921875 357 l 1
EndSplineSet
EndChar

StartChar: slash
Encoding: 47 47 71
Width: 501
VWidth: 0
Flags: HW
VStem: 100 301
LayerCount: 2
Back
Fore
SplineSet
94.6904296875 -23 m 1
 440.301757812 716 l 1
 566.301757812 716 l 1
 221.690429688 -23 l 1
 94.6904296875 -23 l 1
EndSplineSet
EndChar

StartChar: three
Encoding: -1 51 72
Width: 574
VWidth: 0
Flags: HMW
LayerCount: 2
Back
Fore
SplineSet
167 537 m 1
 61 600 l 1
 94 656 152 698 230 698 c 1
 230 572 l 1
 201 570 181 558 167 537 c 1
289 122 m 1
 332 122 364 161 364 201 c 0
 364 251 332 286 288 286 c 1
 288 410 l 1
 341 416 364 448 364 499 c 0
 364 553 321 574 291 574 c 0
 290 574 288 574 287 574 c 1
 287 698 l 1
 421 695 488 582 488 508 c 0
 488 403 440 353 426 350 c 1
 454 331 489 274 489 199 c 0
 489 75 372 -0 292 -0 c 0
 291 -0 291 -0 290 0 c 1
 289 122 l 1
167 160 m 1
 181 139 201 127 230 125 c 1
 230 -1 l 1
 152 -1 94 41 61 97 c 1
 167 160 l 1
EndSplineSet
Validated: 1
EndChar

StartChar: five
Encoding: 53 53 73
Width: 492
VWidth: 0
Flags: HW
HStem: 0 126<152.885 204 258 301.897> 324 123<159.673 204 258 302.14> 573 127<171 409>
VStem: 338 128<160.532 288.657>
LayerCount: 2
Back
Fore
SplineSet
541.518554688 574 m 1
 303.287109375 573 l 1
 261.043945312 442 l 1
 274.736328125 445 290.198242188 447 307.198242188 447 c 1
 278.801757812 324 l 1
 244.108398438 321 217.491210938 301 202.028320312 286 c 1
 107.727539062 354 l 1
 216.607421875 700 l 1
 570.607421875 700 l 1
 541.518554688 574 l 1
361.198242188 447 m 1
 503.505859375 444 542.87890625 333 517.483398438 223 c 0
 484.931640625 82 363.461914062 2 258 0 c 1
 287.08984375 126 l 1
 338.166992188 135 378.170898438 174 389.71484375 224 c 0
 402.643554688 280 369.646484375 319 332.801757812 324 c 1
 361.198242188 447 l 1
171.40234375 175 m 1
 180.245117188 144 207.244140625 131 233.08984375 126 c 1
 204 0 l 1
 120 0 70.6201171875 46 52.703125 107 c 1
 171.40234375 175 l 1
EndSplineSet
EndChar

StartChar: seven
Encoding: 55 55 74
Width: 435
VWidth: 0
Flags: HW
HStem: 0 21G<136 281> 0 21G<136 281> 510 188<260 381.095> 572 126<20 260>
LayerCount: 2
Back
Fore
SplineSet
181.146484375 698 m 1x10
 570.146484375 698 l 1x10
 541.287109375 573 l 1
 526.748046875 562 500.12890625 529 488.743164062 510 c 1
 353.743164062 510 l 1x20
 392.056640625 572 l 1
 152.056640625 572 l 1
 181.146484375 698 l 1x10
326.890625 450 m 1
 459.890625 450 l 1
 386.260742188 300 324.553710938 154 273 0 c 1
 136 0 l 1x80
 189.477539062 158 249.106445312 295 326.890625 450 c 1
EndSplineSet
EndChar

StartChar: eight
Encoding: 56 56 75
Width: 486
VWidth: 0
Flags: HW
HStem: 0 125<178.166 211 275 307.834> 571 127<175.044 214 272 310.877>
VStem: 26 128<147.696 261.521 434.061 548.421> 329 123<432.47 552.614> 332 128<147.696 261.521>
LayerCount: 2
Back
Fore
SplineSet
302.858398438 125 m 1xe8
 337.936523438 134 370.092773438 165 378.404296875 201 c 0xe8
 389.948242188 251 368.2578125 274 338.3359375 283 c 1
 368.348632812 413 l 1
 406.887695312 424 431.966796875 446 443.741210938 497 c 0
 456.208007812 551 421.1328125 568 403.826171875 571 c 1
 433.146484375 698 l 1
 503.146484375 698 594.907226562 619 567.203125 499 c 0xf0
 547.810546875 415 490.265625 352 475.573242188 349 c 1
 499.186523438 330 522.103515625 269 505.942382812 199 c 0
 472.236328125 53 316 0 276 0 c 0
 276 0 275 0 275 0 c 1
 302.858398438 125 l 1xe8
240.858398438 125 m 1
 211 0 l 1
 211 0 210 0 210 0 c 0
 170 0 38.236328125 53 71.9423828125 199 c 0
 88.103515625 269 139.186523438 330 171.573242188 349 c 1
 158.265625 352 128.810546875 415 148.203125 499 c 0
 175.907226562 619 305.146484375 698 375.146484375 698 c 1
 345.826171875 571 l 1
 327.1328125 568 284.208007812 551 271.741210938 497 c 0
 259.966796875 446 274.887695312 424 308.348632812 413 c 1
 278.3359375 283 l 1
 244.2578125 274 211.948242188 251 200.404296875 201 c 0
 192.092773438 165 209.936523438 134 240.858398438 125 c 1
EndSplineSet
EndChar

StartChar: nine
Encoding: 57 57 76
Width: 504
VWidth: 0
Flags: HW
HStem: 1 126<169 218 272 309.835> 274 118<174.148 217 272 313.391> 576 124<172.388 218 272 310.433>
VStem: 26 119<418.918 547.493> 349 129<176.432 300>
LayerCount: 2
Back
Fore
SplineSet
281.2578125 274 m 1
 157.2578125 274 108.881835938 359 137.970703125 485 c 0
 166.830078125 610 278.376953125 699 379.607421875 700 c 1
 350.98046875 576 l 1
 315.056640625 572 269.668945312 540 258.356445312 491 c 0
 239.424804688 409 289.193359375 395 307.0390625 390 c 1
 281.2578125 274 l 1
183.094726562 178 m 1
 198.629882812 150 205.474609375 132 247.3203125 127 c 1
 218.23046875 1 l 1
 140.23046875 1 87.7744140625 51 69.5498046875 115 c 1
 183.094726562 178 l 1
272.461914062 2 m 1
 301.3203125 127 l 1
 376.783203125 142 406.254882812 248 418.260742188 300 c 1
 395.797851562 285 365.2578125 274 335.2578125 274 c 1
 362.5 392 l 1
 362.5 392 363.5 392 363.5 392 c 0
 384.654296875 397 435.348632812 413 453.125 490 c 0
 462.12890625 529 441.826171875 571 404.749023438 575 c 1
 433.607421875 700 l 1
 608.607421875 700 596.435546875 513 556.725585938 341 c 0
 529.71484375 224 445.384765625 6 272.461914062 2 c 1
EndSplineSet
EndChar

StartChar: zero
Encoding: -1 48 77
Width: 1024
VWidth: 0
Flags: HM
LayerCount: 2
Back
Fore
SplineSet
404 698 m 1
 404 573 l 1
 351 560 346 461 346 398 c 0
 346 371 346 360 346 339 c 0
 346 248 348 137 403 124 c 1
 403 0 l 1
 337 3 221 60 221 353 c 0
 221 602 315 693 404 698 c 1
464 698 m 1
 553 693 647 602 647 353 c 0
 647 60 531 3 465 0 c 1
 465 124 l 1
 520 137 522 248 522 339 c 0
 522 360 522 371 522 398 c 0
 522 461 517 560 464 573 c 1
 464 698 l 1
EndSplineSet
Validated: 1
EndChar

StartChar: semicolon
Encoding: 59 59 78
Width: 291
VWidth: 0
Flags: HW
HStem: -23 152<87 177> 285 151<112.75 219.25>
VStem: 91 150<306.75 413.75>
LayerCount: 2
Back
Fore
SplineSet
174.112304688 360 m 0
 183.80859375 402 224.658203125 436 266.658203125 436 c 0
 308.658203125 436 333.80859375 402 324.112304688 360 c 0
 314.416015625 318 273.797851562 285 231.797851562 285 c 0
 189.797851562 285 164.416015625 318 174.112304688 360 c 0
171.690429688 -23 m 1
 44.6904296875 -23 l 1
 116.782226562 129 l 1
 243.782226562 129 l 1
 171.690429688 -23 l 1
EndSplineSet
EndChar

StartChar: quotesingle
Encoding: -1 39 79
Width: 227
VWidth: 0
Flags: HMW
LayerCount: 2
Back
Fore
SplineSet
177 465 m 1
 50 465 l 1
 50 736 l 1
 177 736 l 1
 177 465 l 1
EndSplineSet
Validated: 1
EndChar

StartChar: ampersand
Encoding: -1 38 80
Width: 760
VWidth: 0
Flags: HMW
LayerCount: 2
Back
Fore
SplineSet
307 576 m 1
 307 576 281 567 281 534 c 0
 281 499 301 493 307 487 c 1
 307 267 l 1
 283 295 l 1
 241 272 207 249 207 202 c 0
 207 158 249 133 307 133 c 1
 307 1 l 1
 132 1 50 85 50 212 c 0
 50 304 131 368 201 402 c 1
 177 426 144 484 144 526 c 0
 144 619 203 679 307 700 c 1
 307 576 l 1
367 698 m 1
 474 679 527 616 527 518 c 0
 527 443 464 384 413 359 c 1
 481 278 l 1
 493 297 501 318 505 343 c 1
 644 343 l 1
 634 272 609 225 570 178 c 1
 713 0 l 1
 519 0 l 1
 467 70 l 1
 443 48 402 24 367 14 c 1
 367 166 l 1
 374 171 375 172 382 178 c 1
 367 196 l 1
 367 484 l 1
 378 493 394 502 394 531 c 0
 394 555 390 568 367 580 c 1
 367 698 l 1
EndSplineSet
Validated: 1
EndChar

StartChar: dollar
Encoding: -1 36 81
Width: 544
VWidth: 0
Flags: HMW
LayerCount: 2
Back
SplineSet
308 757 m 1
 308 698 l 1
 349 692 383 680 416 646 c 0
 452 609 472 561 473 528 c 1
 337 502 l 1
 335 532 331 542 308 562 c 1
 308 425 l 1
 412 391 493 331 493 224 c 0
 493 123 425 19 308 0 c 1
 308 -53 l 1
 233 -53 l 1
 233 0 l 1
 183 11 145 24 105 64 c 0
 67 101 50 137 50 185 c 1
 183 214 l 1
 184 169 203 147 233 136 c 1
 233 312 l 1
 132 348 68 399 68 506 c 0
 68 605 141 684 232 699 c 1
 232 757 l 1
 308 757 l 1
EndSplineSet
Validated: 1
Fore
Validated: 1
EndChar

StartChar: greater
Encoding: 62 62 82
Width: 414
VWidth: 0
Flags: HW
LayerCount: 2
Back
Fore
SplineSet
145.434570312 500 m 5
 458.33984375 322 l 5
 443.564453125 258 l 5
 48.23828125 79 l 5
 77.55859375 206 l 5
 273.413085938 292 l 5
 115.420898438 370 l 5
 145.434570312 500 l 5
EndSplineSet
EndChar

StartChar: less
Encoding: 60 60 83
Width: 414
VWidth: 0
Flags: HW
LayerCount: 2
Back
Fore
SplineSet
499.434570312 500 m 5
 469.420898438 370 l 5
 275.413085938 292 l 5
 431.55859375 206 l 5
 402.23828125 79 l 5
 89.564453125 258 l 5
 104.33984375 322 l 5
 499.434570312 500 l 5
EndSplineSet
EndChar

StartChar: parenleft
Encoding: -1 40 84
Width: 262
VWidth: 0
Flags: HMW
LayerCount: 2
Back
Fore
SplineSet
212 735 m 1
 213 648 l 1
 174 625 154 593 153 521 c 2
 153 208 l 2
 153 206 153 204 153 202 c 0
 153 104 178 73 213 51 c 1
 213 -37 l 1
 71 22 50 93 50 189 c 1
 50 510 l 1
 50 652 113 696 212 735 c 1
EndSplineSet
Validated: 1
EndChar

StartChar: parenright
Encoding: -1 41 85
Width: 264
VWidth: 0
Flags: HMW
LayerCount: 2
Back
Fore
SplineSet
50 735 m 1
 149 696 211 652 213 510 c 1
 213 189 l 1
 212 93 192 22 50 -37 c 1
 50 51 l 1
 85 73 110 104 110 202 c 0
 110 204 110 206 110 208 c 2
 110 521 l 2
 109 593 89 625 50 648 c 1
 50 735 l 1
EndSplineSet
Validated: 1
EndChar

StartChar: exclam
Encoding: -1 33 86
Width: 329
VWidth: 0
Flags: HMW
LayerCount: 2
Back
Fore
SplineSet
88 53 m 0
 88 95 121 129 163 129 c 0
 205 129 238 95 238 53 c 0
 238 11 205 -22 163 -22 c 0
 121 -22 88 11 88 53 c 0
100 166 m 1
 100 700 l 1
 229 700 l 1
 229 166 l 1
 100 166 l 1
EndSplineSet
Validated: 1
EndChar

StartChar: three
Encoding: 51 51 87
Width: 484
VWidth: 0
Flags: HW
HStem: 0 122<146.848 195 255 301.061> 286 124<188 301.75> 574 124<146.736 195 252 304.556>
VStem: 327 131<144.848 262.629 434.805 553.588>
LayerCount: 2
Back
Fore
SplineSet
255.9765625 537 m 1
 164.520507812 600 l 1
 210.44921875 656 278.146484375 698 356.146484375 698 c 1
 327.056640625 572 l 1
 297.594726562 570 274.82421875 558 255.9765625 537 c 1
282.166015625 122 m 1
 325.166015625 122 364.169921875 161 373.404296875 201 c 0
 387.256835938 261 372.028320312 286 254.028320312 286 c 1
 282.65625 410 l 1
 402.65625 410 428.3515625 439 442.203125 499 c 0
 454.669921875 553 418.518554688 574 388.518554688 574 c 0
 387.518554688 574 385.518554688 574 384.518554688 574 c 1
 413.146484375 698 l 1
 546.453125 695 587.365234375 582 570.28125 508 c 0
 547.88671875 411 506.498046875 366 471.803710938 350 c 1
 495.416992188 331 523.56640625 284 503.942382812 199 c 0
 475.315429688 75 337 0 257 0 c 0
 256 0 256 0 255 0 c 1
 282.166015625 122 l 1
168.938476562 160 m 1
 178.090820312 139 195.3203125 127 223.858398438 125 c 1
 194.76953125 -1 l 1
 116.76953125 -1 66.92578125 30 48.39453125 97 c 1
 168.938476562 160 l 1
EndSplineSet
EndChar

StartChar: yen
Encoding: 165 165 88
Width: 542
VWidth: 0
Flags: W
HStem: 0 21G<203 340> 0 21G<203 340> 238 57<50 193 351 492> 351 58<50 162 382 492> 678 20G<73 215.915 327.366 470>
VStem: 203 137<0 236>
LayerCount: 2
Back
Fore
SplineSet
210 698 m 1049,0,-1
73 698 m 1,1,-1
 210 698 l 1,2,-1
 273 485 l 1,3,-1
 333 698 l 1,4,-1
 470 698 l 1,5,-1
 382 408 l 1,6,-1
 492 408 l 1,7,-1
 492 350 l 1,8,-1
 365 350 l 1,9,-1
 351 295 l 1,10,-1
 492 295 l 1,11,-1
 492 236 l 1,12,-1
 340 236 l 1,13,-1
 340 0 l 1,14,-1
 203 0 l 1,15,-1
 203 238 l 1,16,-1
 50 238 l 1,17,-1
 50 295 l 1,18,-1
 193 295 l 1,19,-1
 177 351 l 1,20,-1
 50 351 l 1,21,-1
 50 409 l 1,22,-1
 162 409 l 1,23,-1
 73 698 l 1,1,-1
EndSplineSet
Validated: 1
EndChar

StartChar: EURO
Encoding: 256 8364 89
Width: 567
VWidth: 0
Flags: W
HStem: 258 59<50 99 236 408> 376 60<50 99 236 408> 558 140<245.316 278 338 370.921>
VStem: 99 137<151.679 258 317 376 436 548.239> 381 136<152.064 186 514 547.936>
LayerCount: 2
Back
Fore
SplineSet
278 698 m 1
 278 558 l 1
 239 543 236 532 236 488 c 2
 236 436 l 1
 408 436 l 1
 408 376 l 1
 236 376 l 1
 236 317 l 1
 408 317 l 1
 408 258 l 1
 236 258 l 1
 236 202 l 2
 236 155 254 154 278 141 c 1
 278 2 l 1
 197 8 168 45 134 90 c 0
 113 118 101 149 99 182 c 2
 99 258 l 1
 50 258 l 1
 50 317 l 1
 99 317 l 1
 99 377 l 1
 50 377 l 1
 50 436 l 1
 99 436 l 1
 99 496 l 2
 99 540.463128728 106.398098612 575.843594285 134 613 c 0
 172 666 217 696 278 698 c 1
338 698 m 1
 387 697 426 675 464 636 c 0
 501 598 517 544 517 514 c 1
 380 463 l 1
 381 501 l 2
 381 535 366 549 338 558 c 1
 338 698 l 1
338 2 m 1
 338 142 l 1
 366 151 381 165 381 199 c 2
 380 237 l 1
 517 186 l 1
 517 156 501 102 464 64 c 0
 426 25 387 3 338 2 c 1
EndSplineSet
Validated: 1
EndChar

StartChar: HKD
Encoding: 257 22291 90
Width: 843
VWidth: 0
Flags: HW
HStem: 488 210<50 92 126 169 198 241 284 299> 573 41<92 101 117 126>
VStem: 50 51<573 614> 50 42<488 573 614 698> 117 52<573 614> 126 43<488 573 614 698> 198 43<488 698> 360 134<466.95 556.383> 464.25 70.875<-47.4453 24.3843 666.456 749.532> 590 71.125<-47.4453 21.6146 668.26 749.532> 652 141<146.033 253.417>
LayerCount: 2
Back
Fore
SplineSet
101 614 m 1x62
 101 573 l 1x62
 92 573 l 1x52
 92 488 l 1
 50 488 l 1
 50 698 l 1
 92 698 l 1x92
 92 614 l 1x52
 101 614 l 1x62
283 698 m 1x82
 325 698 l 1
 299 611 l 1
 326 488 l 1
 284 488 l 1
 257 611 l 1
 283 698 l 1x82
198 698 m 1
 241 698 l 1
 241 488 l 1
 198 488 l 1
 198 698 l 1
126 698 m 1x86
 169 698 l 1
 169 488 l 1
 126 488 l 1x86
 126 573 l 1x46
 117 573 l 1
 117 614 l 1x4a
 126 614 l 1x46
 126 698 l 1x86
EndSplineSet
Refer: 96 36 N 1 0 0 1 322 0 2
EndChar

StartChar: NameMe.167
Encoding: 258 -1 91
Width: 699
VWidth: 0
Flags: HW
HStem: 678 20G<100 108 124 140>
VStem: 56 40<527.005 543 619.558 671.224> 143 40<517.198 574.877 646 657.997> 216 134<466.95 556.383> 320.25 70.875<-47.4453 24.3843 666.456 749.532> 446 71.125<-47.4453 21.6146 668.26 749.532> 508 141<146.033 253.417>
LayerCount: 2
Back
Fore
SplineSet
108 698 m 1xe0
 108 657 l 1
 101 656 96 648 96 641 c 0
 96 619 127 618 147 607 c 0
 166 596 183 584 183 552 c 0
 183 518 150 488 124 488 c 1
 124 527 l 1
 132 530 143 539 143 551 c 0
 143 575 111 578 93 587 c 0
 72 597 56 609 56 640 c 0
 56 684 92 698 108 698 c 1xe0
124 698 m 1
 156 698 178 664 178 646 c 1
 137 638 l 1
 137 654 124 658 124 658 c 1
 124 698 l 1
108 488 m 1
 74 488 50 522 50 543 c 1
 91 551 l 1
 91 534 108 527 108 527 c 1
 108 488 l 1
EndSplineSet
Refer: 96 36 N 1 0 0 1 178 0 2
EndChar

StartChar: zero
Encoding: 48 48 92
Width: 486
VWidth: 0
Flags: HW
HStem: 0 124<185.059 212 274 300.941> 573 125<183.614 213 273 302.386>
VStem: 26 129<164.282 530.253> 331 129<164.282 530.688>
LayerCount: 2
Back
Fore
SplineSet
374.146484375 698 m 1
 345.287109375 573 l 1
 289.286132812 560 261.430664062 461 246.885742188 398 c 0
 240.65234375 371 238.112304688 360 233.264648438 339 c 0
 212.254882812 248 188.62890625 137 240.627929688 124 c 1
 212 0 l 1
 146.692382812 3 38.236328125 53 107.49609375 353 c 4
 166.598632812 609 283.991210938 693 374.146484375 698 c 1
434.146484375 698 m 1
 521.991210938 693 600.830078125 610 541.49609375 353 c 4
 472.236328125 53 340.692382812 3 274 0 c 1
 302.627929688 124 l 1
 360.62890625 137 388.254882812 248 409.264648438 339 c 0
 414.112304688 360 416.65234375 371 422.885742188 398 c 0
 437.430664062 461 455.286132812 560 405.287109375 573 c 1
 434.146484375 698 l 1
EndSplineSet
EndChar

StartChar: numbersign
Encoding: -1 35 93
Width: 788
VWidth: 0
Flags: HMW
LayerCount: 2
Back
Fore
SplineSet
285 22 m 1
 164 22 l 1
 191 176 l 1
 51 176 l 1
 76 297 l 1
 213 297 l 1
 231 404 l 1
 85 404 l 1
 107 525 l 1
 253 525 l 1
 280 682 l 1
 401 682 l 1
 373 524 l 1
 479 524 l 1
 506 682 l 1
 627 682 l 1
 599 524 l 1
 737 524 l 1
 718 403 l 1
 578 404 l 1
 559 296 l 1
 702 296 l 1
 684 175 l 1
 538 176 l 1
 511 22 l 1
 391 22 l 1
 417 176 l 1
 312 176 l 1
 285 22 l 1
457 404 m 1
 352 404 l 1
 333 297 l 1
 439 296 l 1
 457 404 l 1
EndSplineSet
Validated: 1
EndChar

StartChar: quotesingle
Encoding: 39 39 94
Width: 187
VWidth: 0
Flags: HW
HStem: 465 271<30 157>
VStem: 30 127<465 736>
LayerCount: 2
Back
Fore
SplineSet
264.353515625 465 m 1
 137.353515625 465 l 1
 199.918945312 736 l 1
 326.918945312 736 l 1
 264.353515625 465 l 1
EndSplineSet
EndChar

StartChar: ampersand
Encoding: 38 38 95
Width: 687
VWidth: 0
Flags: HW
HStem: 682 20G<205 257 317 370.488>
VStem: 26 157<152.645 267.816> 94 137<492.821 574.661> 344 133<491.195 579.134>
LayerCount: 2
Back
Fore
SplineSet
390.44140625 578 m 1xb0
 390.44140625 578 362.364257812 569 354.745117188 536 c 0xb0
 346.665039062 501 365.279296875 495 369.89453125 489 c 1
 319.103515625 269 l 1
 301.567382812 297 l 5
 271.48828125 275 240.948242188 251 230.096679688 204 c 4
 219.982421875 160.1875 241.509765625 134.68359375 288.166992188 135 c 1
 257.692382812 3 l 5
 107.391601562 3 47.3603515625 92.5234375 75.40625 214 c 4xd0
 96.6455078125 306 166.420898438 370 244.270507812 404 c 1
 221.887695312 424 206.202148438 486 215.8984375 528 c 0
 237.369140625 621 310.221679688 681 419.069335938 702 c 1
 390.44140625 578 l 1xb0
478.607421875 700 m 1
 581.197265625 681.00390625 619.624023438 617.7734375 597.051757812 520 c 0
 579.736328125 445 505.422851562 383 446.34375 361 c 1
 495.643554688 280 l 1
 512.029296875 299 524.877929688 320 534.649414062 345 c 1
 673.649414062 345 l 1
 646.984375 274.442382812 611.439453125 226.874023438 561.556640625 180 c 1
 664.694335938 16 l 1
 467.694335938 16 l 1
 433.622070312 72 l 1
 404.54296875 50 358.002929688 26 320.694335938 16 c 1
 355.786132812 168 l 1
 363.940429688 173 365.170898438 174 373.556640625 180 c 1
 362.711914062 198 l 1
 429.202148438 486 l 1
 442.279296875 495 460.357421875 504 467.052734375 533 c 0
 472.59375 557 471.594726562 570 451.365234375 582 c 1
 478.607421875 700 l 1
EndSplineSet
EndChar

StartChar: dollar
Encoding: 36 36 96
Width: 501
Flags: HW
VStem: 38 134<466.95 556.383> 142.25 70.875<-47.4453 24.3843 666.456 749.532> 268 71.125<-47.4453 21.6146 668.26 749.532> 330 141<146.033 253.417>
LayerCount: 2
Back
Fore
SplineSet
366.833984375 428.098632812 m 1x20
 390.057617188 417.793945312 414.481445312 407.489257812 433.961914062 394 c 0
 486.650390625 358 542.799804688 311 519.250976562 209 c 0x10
 499.133789062 121.861328125 424.446289062 43.0478515625 341.788085938 11.537109375 c 1
 328.170898438 -47.4453125 l 1
 257.295898438 -47.4453125 l 1
 267.557617188 -3 l 2
 267.474609375 -3 267.390625 -3 267.307617188 -3 c 2
 297.3203125 127 l 1x20
 322.012695312 130 364.629882812 150 376.866210938 203 c 0x10
 385.5234375 240.5 363.526367188 263.25 332.701171875 280.25 c 1
 366.833984375 428.098632812 l 1x20
386.16796875 749.532226562 m 1x40
 346.52734375 577.830078125 l 1x40
 346.40234375 577.830078125 l 1
 344.1328125 568 l 1
 321.748046875 562 295.9765625 537 290.435546875 513 c 0
 284.239257812 486.162109375 296.768554688 468.1484375 317.727539062 453.625976562 c 1
 282.828125 302.4609375 l 1
 265.639648438 309.248046875 248.963867188 315.713867188 235.5703125 323 c 0
 172.419921875 357 131.040039062 403 155.28125 508 c 0x80
 176.301757812 599.051757812 241.912109375 652.7734375 299.07421875 679.282226562 c 1
 315.29296875 749.532226562 l 1
 386.16796875 749.532226562 l 1x40
496.610351562 682.142578125 m 1x20
 551.793945312 649.256835938 572.404296875 580.013671875 570.669921875 553 c 1
 430.743164062 510 l 1
 436.59375 557 399.1328125 568 399.1328125 568 c 1
 429.607421875 700 l 1
 429.857421875 700 l 1
 441.29296875 749.532226562 l 1
 512.16796875 749.532226562 l 1
 496.610351562 682.142578125 l 1x20
241.8125 124.2578125 m 1x40
 202.170898438 -47.4453125 l 1
 131.295898438 -47.4453125 l 1
 145.176757812 12.677734375 l 1
 83.7392578125 44.2373046875 57.54296875 115.993164062 66.4775390625 158 c 1
 203.866210938 203 l 1
 192.9375 147 242.3203125 127 242.3203125 127 c 1
 241.6875 124.2578125 l 1
 241.8125 124.2578125 l 1x40
EndSplineSet
EndChar

StartChar: braceleft
Encoding: 123 123 97
Width: 407
VWidth: 0
Flags: HW
HStem: -38 99<255.842 307> 635 100<257.831 307>
VStem: 112 127<81.0941 326.556 366.656 616.84>
LayerCount: 2
Back
Fore
SplineSet
476.688476562 735 m 5
 453.6015625 635 l 5
 385.6015625 635 376.443359375 591 347.27734375 469 c 6
 327.653320312 384 l 6
 327.653320312 384 327.653320312 384 327.422851562 383 c 4
 323.498046875 366 300.727539062 354 275.341796875 348 c 5
 298.495117188 340 314.032226562 325 309.18359375 304 c 6
 287.020507812 208 l 6
 286.790039062 207 l 4
 258.854492188 86 267.083007812 61 321.083007812 61 c 5
 298.2265625 -38 l 5
 292.2265625 -38 286.2265625 -38 280.2265625 -38 c 4
 191.2265625 -38 104.842773438 -31 156.327148438 192 c 6
 178.952148438 290 l 6
 186.33984375 322 161.956054688 329 130.341796875 348 c 5
 169.8046875 363 196.420898438 370 206.194335938 408 c 6
 228.357421875 504 l 6
 277.0703125 715 367.688476562 735 476.688476562 735 c 5
EndSplineSet
EndChar

StartChar: underscore
Encoding: 95 95 98
Width: 510
VWidth: 0
Flags: HW
HStem: -205 107<30 480>
LayerCount: 2
Back
Fore
SplineSet
432.671875 -205 m 1
 -17.328125 -205 l 1
 7.375 -98 l 1
 457.375 -98 l 1
 432.671875 -205 l 1
EndSplineSet
EndChar

StartChar: parenleft
Encoding: 40 40 99
Width: 330
VWidth: 0
Flags: HW
VStem: 50 119<90.892 609.704>
LayerCount: 2
Back
Fore
SplineSet
401.227539062 746 m 5
 379.833007812 649 l 5
 335.5234375 626 306.905273438 593 289.282226562 521 c 6
 217.020507812 208 l 6
 216.55859375 206 216.096679688 204 215.635742188 202 c 4
 193.010742188 104 210.853515625 73 240.774414062 51 c 5
 218.149414062 -47 l 5
 89.078125 9 71.470703125 93 93.6337890625 189 c 5
 167.743164062 510 l 5
 200.064453125 650 283.993164062 706 401.227539062 746 c 5
EndSplineSet
EndChar

StartChar: parenright
Encoding: 41 41 100
Width: 330
VWidth: 0
Flags: HW
VStem: 161 119<90.892 202 510 609.704>
LayerCount: 2
Back
Fore
SplineSet
273.227539062 746 m 5
 249.833007812 649 l 5
 283.5234375 626 296.905273438 593 281.282226562 521 c 6
 209.020507812 208 l 6
 208.55859375 206 208.096679688 204 207.635742188 202 c 4
 185.010742188 104 152.853515625 73 112.774414062 51 c 5
 90.1494140625 -47 l 5
 245.078125 9 301.470703125 93 323.633789062 189 c 5
 397.743164062 510 l 5
 430.064453125 650 371.993164062 706 273.227539062 746 c 5
EndSplineSet
EndChar

StartChar: exclam
Encoding: 33 33 101
Width: 210
VWidth: 0
Flags: HW
HStem: -22 151<51.75 158.25> 680 20G<42 171>
VStem: 30 150<-0.25 106.75> 42 129<166 700>
LayerCount: 2
Back
Fore
SplineSet
42.236328125 53 m 0xe0
 51.9326171875 95 92.7822265625 129 134.782226562 129 c 0
 176.782226562 129 201.932617188 95 192.236328125 53 c 0
 182.5390625 11 141.920898438 -22 99.9208984375 -22 c 0
 57.9208984375 -22 32.5390625 11 42.236328125 53 c 0xe0
80.32421875 166 m 1xd0
 203.607421875 700 l 1
 332.607421875 700 l 1
 209.32421875 166 l 1
 80.32421875 166 l 1xd0
EndSplineSet
EndChar

StartChar: Percent_sign
Encoding: 37 37 102
Width: 629
VWidth: 0
Flags: HW
HStem: 9 216<430.23 559.77> 467 216<69.2301 198.77>
VStem: 26 216<510.23 639.77> 387 216<52.2301 181.77>
LayerCount: 2
Back
Fore
SplineSet
154.690429688 -23 m 1
 500.301757812 716 l 1
 626.301757812 716 l 1
 281.690429688 -23 l 1
 154.690429688 -23 l 1
158.749023438 575 m 0
 172.6015625 635 231.682617188 683 291.682617188 683 c 0
 351.682617188 683 388.6015625 635 374.749023438 575 c 0
 360.897460938 515 301.815429688 467 241.815429688 467 c 0
 181.815429688 467 144.897460938 515 158.749023438 575 c 0
414.01171875 117 m 0
 427.86328125 177 486.9453125 225 546.9453125 225 c 0
 606.9453125 225 643.86328125 177 630.01171875 117 c 0
 616.159179688 57 557.078125 9 497.078125 9 c 0
 437.078125 9 400.159179688 57 414.01171875 117 c 0
EndSplineSet
EndChar

StartChar: numbersign
Encoding: 35 35 103
Width: 888
VWidth: 0
Flags: HW
HStem: 176 121<126 241 383 467 609 734> 404 121<157 281 423 507 649 768>
LayerCount: 2
Back
Fore
SplineSet
340.079101562 22 m 1
 219.079101562 22 l 1
 281.6328125 176 l 1
 141.6328125 176 l 1
 194.567382812 297 l 1
 331.567382812 297 l 1
 374.270507812 404 l 1
 228.270507812 404 l 1
 278.206054688 525 l 1
 424.206054688 525 l 1
 487.452148438 682 l 1
 608.452148438 682 l 1
 543.974609375 524 l 1
 649.974609375 524 l 1
 713.452148438 682 l 1
 834.452148438 682 l 1
 769.974609375 524 l 1
 907.974609375 524 l 1
 861.040039062 403 l 1
 721.270507812 404 l 1
 677.336914062 296 l 1
 820.336914062 296 l 1
 774.40234375 175 l 1
 628.6328125 176 l 1
 566.079101562 22 l 1
 446.079101562 22 l 1
 507.6328125 176 l 1
 402.6328125 176 l 1
 340.079101562 22 l 1
600.270507812 404 m 1
 495.270507812 404 l 1
 451.567382812 297 l 1
 557.336914062 296 l 1
 600.270507812 404 l 1
EndSplineSet
EndChar

StartChar: braceright
Encoding: 125 125 104
Width: 407
VWidth: 0
Flags: HW
HStem: -38 99<100 151.158> 635 100<100 149.169>
VStem: 168 127<81.0941 326.556 366.656 616.84>
LayerCount: 2
Back
Fore
SplineSet
269.688476562 735 m 5
 378.688476562 735 460.0703125 715 411.357421875 504 c 6
 389.194335938 408 l 6
 381.420898438 370 404.8046875 363 437.341796875 348 c 5
 396.956054688 329 369.33984375 322 361.952148438 290 c 6
 339.327148438 192 l 6
 287.842773438 -31 198.2265625 -38 109.2265625 -38 c 4
 103.2265625 -38 97.2265625 -38 91.2265625 -38 c 5
 114.083007812 61 l 5
 168.083007812 61 187.854492188 86 215.790039062 207 c 4
 216.020507812 208 l 6
 238.18359375 304 l 6
 243.032226562 325 265.495117188 340 292.341796875 348 c 5
 269.727539062 354 252.498046875 366 256.422851562 383 c 4
 256.653320312 384 256.653320312 384 256.653320312 384 c 6
 276.27734375 469 l 6
 303.443359375 591 314.6015625 635 246.6015625 635 c 5
 269.688476562 735 l 5
EndSplineSet
EndChar

StartChar: k
Encoding: 107 107 105
Width: 452
VWidth: 0
Flags: HW
HStem: 0 21G<30 155 286.815 427.585> 0 21G<30 155 286.815 427.585> 494 20G<286.272 428.045> 678 20G<30 155>
VStem: 30 125<0 698>
LayerCount: 2
Back
Fore
SplineSet
155 0 m 1xb8
 30 0 l 1
 191.146484375 698 l 1
 316.146484375 698 l 1
 155 0 l 1xb8
295.586914062 0 m 1
 242.176757812 257.0859375 l 1
 413.670898438 514 l 1
 546.7109375 514 l 1
 371.974609375 256.788085938 l 1
 427.584960938 0 l 1
 295.586914062 0 l 1
EndSplineSet
EndChar

StartChar: n
Encoding: 110 110 106
Width: 434
VWidth: 0
Flags: HW
HStem: 0 21G<30 154 280 404> 0 21G<30 154 280 404> 398 121<157.445 196.482 237.518 276.577>
VStem: 30 124<0 394.598> 280 124<0 393.831>
LayerCount: 2
Back
Fore
SplineSet
365.938476562 372.240234375 m 1xb8
 366.401367188 374.983398438 365.576171875 398 335.305664062 398 c 2
 329.403320312 398 l 1
 357.337890625 519 l 1
 363.240234375 519 l 0
 470.106445312 519 501.470703125 422.193359375 491.149414062 377.486328125 c 0
 404 0 l 1
 280 0 l 1
 365.938476562 372.240234375 l 1xb8
239.9375 372.236328125 m 1
 154 0 l 1
 30 0 l 1
 117.149414062 377.486328125 l 0
 128.15234375 425.142578125 203.6171875 519 310.400390625 519 c 0
 316.302734375 519 l 1
 288.368164062 398 l 1
 282.465820312 398 l 0
 251.5859375 398 240.452148438 373.985351562 239.9375 372.236328125 c 1
EndSplineSet
EndChar

StartChar: s
Encoding: 115 115 107
Width: 418
VWidth: 0
Flags: HW
HStem: 497 19.6328G<152.137 182.391 224.119 274.328>
VStem: 26.4053 111.522<335.003 397.736> 279.668 117.451<119.12 182.167>
LayerCount: 2
Back
Fore
SplineSet
52.37890625 133.69921875 m 0
 52.861328125 136.318359375 l 1
 169.28515625 156.727539062 l 1
 168.907226562 153.53515625 l 0
 166.682617188 134.7109375 182.951171875 112.609375 206.912109375 110.633789062 c 0
 209.73828125 110.400390625 l 1
 183.139648438 -4.837890625 l 1
 179.991210938 -4.8359375 l 0
 85.96875 -4.7685546875 40.546875 69.494140625 52.37890625 133.69921875 c 0
474.921875 376.233398438 m 0
 474.334960938 373.703125 l 1
 358.248046875 354.703125 l 1
 358.697265625 357.9296875 l 0
 364.236328125 398.435546875 327.911132812 403.981445312 319.685546875 403.766601562 c 0
 316.404296875 403.681640625 l 1
 343.672851562 517 l 1
 346.790039062 517 l 0
 440.583984375 517 489.72265625 440.08984375 474.921875 376.233398438 c 0
276.208007812 406.1015625 m 5
 273.340820312 405.80859375 l 6
 232.247070312 401.57421875 224.720703125 376.524414062 221.475585938 361.885742188 c 4
 217.4765625 343.84765625 227.098632812 322.19921875 362.344726562 295.534179688 c 4
 411.831054688 285.35546875 453.125 242.586914062 434.052734375 159.977539062 c 4
 410.34375 57.2802734375 320.09765625 -4.8359375 227.072265625 -4.8359375 c 4
 223.926757812 -4.8359375 l 5
 250.237304688 109.125 l 5
 253.208007812 109.31640625 l 4
 268.1953125 110.280273438 306.5703125 120.536132812 314.7890625 152.125976562 c 4
 326.750976562 198.10546875 215.0390625 205.497070312 164.389648438 231.7265625 c 4
 120.975585938 255.330078125 92.650390625 286.939453125 111.955078125 370.557617188 c 4
 135.509765625 472.584960938 244.314453125 516.6328125 298.508789062 516.6328125 c 4
 301.651367188 516.6328125 l 5
 276.208007812 406.1015625 l 5
EndSplineSet
EndChar

StartChar: y
Encoding: 121 121 108
Width: 383
VWidth: 0
Flags: HW
HStem: 494.696 20G<0 137.453 244.431 382.111>
LayerCount: 2
Back
Fore
SplineSet
143.672851562 112.504882812 m 1
 118.708007812 514.181640625 l 1
 250.198242188 514.696289062 l 1
 263.947265625 326.951171875 l 1
 264.465820312 327.901367188 264.37109375 327.7265625 264.887695312 328.676757812 c 1
 277.578125 110.900390625 l 1
 112.982421875 -182 l 5
 -12.7939453125 -182 l 5
 143.672851562 112.504882812 l 1
369.454101562 514.696289062 m 1
 500.819335938 514.180664062 l 1
 326.80859375 208 l 1
 315.020507812 208 l 1
 303.817382812 393.297851562 l 1
 369.454101562 514.696289062 l 1
EndSplineSet
EndChar

StartChar: z
Encoding: 122 122 109
Width: 348
VWidth: 0
Flags: HW
HStem: -0.494141 118.689<168.732 322> 394.113 119.884<26.2109 182.734>
VStem: 26.2109 295.789<-0.494141 115.613 400.438 513.997>
LayerCount: 2
Back
Fore
SplineSet
414.448242188 400.438476562 m 1
 196.01953125 118.1953125 l 1
 349.1171875 117.456054688 l 1
 321.885742188 -0.494140625 l 1
 26.0966796875 -0.494140625 l 1
 52.90234375 115.61328125 l 1
 273.72265625 394.11328125 l 1
 117.19921875 394.11328125 l 1
 144.876953125 513.997070312 l 1
 440.723632812 514.249023438 l 1
 414.448242188 400.438476562 l 1
EndSplineSet
EndChar

StartChar: equal
Encoding: 61 61 110
Width: 418
VWidth: 0
Flags: HW
HStem: 131 127<50 368> 325 127<50 368>
VStem: 50 318<131 258 325 452>
LayerCount: 2
Back
Fore
SplineSet
427.564453125 258 m 1
 398.244140625 131 l 1
 80.244140625 131 l 1
 109.564453125 258 l 1
 427.564453125 258 l 1
472.352539062 452 m 1
 443.032226562 325 l 1
 125.032226562 325 l 1
 154.352539062 452 l 1
 472.352539062 452 l 1
EndSplineSet
EndChar

StartChar: question
Encoding: 63 63 111
Width: 460
VWidth: 0
Flags: HW
HStem: -22 150.62<143.411 250.284> 575.283 127.717<139.793 273.736>
VStem: 121.537 150.62<-0.127075 106.747> 134 129<166 276> 302 128<423.751 548.113>
LayerCount: 2
Back
Fore
SplineSet
133.844726562 53.3095703125 m 0xe8
 143.560546875 95.39453125 184.45703125 128.620117188 226.541992188 128.620117188 c 0
 268.626953125 128.620117188 294.180664062 95.39453125 284.46484375 53.3095703125 c 0
 274.749023438 11.224609375 233.853515625 -22 191.768554688 -22 c 0
 149.68359375 -22 124.12890625 11.224609375 133.844726562 53.3095703125 c 0xe8
233.436523438 526 m 1
 171.060546875 611 l 1
 209.833007812 649 272.30078125 703 380.30078125 703 c 0
 508.423828125 703 569.400390625 620.462890625 543.356445312 491 c 0
 502.708984375 288.94921875 327.1015625 276 326.719726562 276 c 9
 301.32421875 166 l 25
 172.32421875 166 l 25
 223.115234375 386 l 5xd8
 340.62890625 388.315429688 394.44921875 400.443359375 415.818359375 493 c 0
 427.889648438 545.288085938 390.0859375 575.177734375 342.814453125 575.283203125 c 0
 299.791992188 575.379882812 261.3671875 554.439453125 233.436523438 526 c 1
EndSplineSet
EndChar

StartChar: grave
Encoding: 96 96 112
Width: 263
VWidth: 0
Flags: HW
HStem: 605 152<122 176>
VStem: 49 164
LayerCount: 2
Back
Fore
SplineSet
261.674804688 605 m 1
 223.767578125 757 l 1
 350.767578125 757 l 1
 352.674804688 605 l 1
 261.674804688 605 l 1
EndSplineSet
EndChar

StartChar: backslash
Encoding: 92 92 113
Width: 402
VWidth: 0
Flags: HW
VStem: 50 301
LayerCount: 2
Back
Fore
SplineSet
345.690429688 -23 m 25
 218.690429688 -23 l 25
 215.301757812 716 l 25
 341.301757812 716 l 25
 345.690429688 -23 l 25
EndSplineSet
EndChar

StartChar: sterling
Encoding: 163 163 114
Width: 520
VWidth: 0
Flags: W
HStem: 0 108<238 462> 289 107<50 106 239 378> 584 121.008<250.691 347.839>
VStem: 106 132<108 288 396 570.029>
LayerCount: 2
Back
Fore
SplineSet
371 520 m 1
 361 551 341 584 297 584 c 0
 265 584 239 568 239 517 c 10
 239 396 l 25
 378 396 l 25
 378 289 l 25
 238 289 l 25
 238 108 l 25
 462 108 l 25
 462 0 l 25
 106 0 l 25
 106 288 l 25
 50 288 l 25
 50 395 l 25
 106 395 l 25
 106 514 l 18
 106 617.41437794 160.382335989 705.008439955 290.777451994 705.008439955 c 0
 291.515862436 705.008439955 292.256710462 705.005630981 293 705 c 0
 321 705 345 700 366 691 c 0
 424 668 459 618 470 570 c 9
 371 520 l 1
EndSplineSet
Validated: 1
EndChar

StartChar: asciicircum
Encoding: 94 94 115
Width: 374
VWidth: 0
Flags: HW
HStem: 460.3 296.4
LayerCount: 2
Back
Fore
SplineSet
133.068359375 460.299804688 m 25
 350.297851562 756.700195312 l 25
 439.098632812 756.700195312 l 25
 519.46875 460.299804688 l 25
 395.868164062 460.299804688 l 25
 358.036132812 603.099609375 l 25
 255.46875 460.299804688 l 25
 133.068359375 460.299804688 l 25
EndSplineSet
EndChar

StartChar: bracketleft
Encoding: 91 91 116
Width: 258
VWidth: 0
Flags: HW
HStem: -36 110<179.998 243.998> 629 110<182.998 243.998>
VStem: 49.998 194<-36 74 629 739> 49.998 130<74 629>
LayerCount: 2
Back
Fore
SplineSet
414.609375 739 m 29xe0
 389.213867188 629 l 29xe0
 328.213867188 629 l 29
 197.08203125 74 l 29xd0
 261.08203125 74 l 29
 235.686523438 -36 l 29
 41.6865234375 -36 l 29
 220.609375 739 l 29
 414.609375 739 l 29xe0
EndSplineSet
EndChar

StartChar: bracketright
Encoding: 93 93 117
Width: 258
VWidth: 0
Flags: HW
HStem: -36 110<14 78> 629 110<14 75>
VStem: 14 194<-36 74 629 739> 78 130<74 629>
LayerCount: 2
Back
Refer: 99 40 S -1 0 0 1 699 0 2
Refer: 99 40 N -1 0 0 1 699 0 2
Fore
SplineSet
184.611328125 739 m 25xe0
 378.611328125 739 l 25
 199.688476562 -36 l 25
 5.6884765625 -36 l 25
 31.083984375 74 l 25xe0
 95.083984375 74 l 25xd0
 220.215820312 629 l 25
 159.215820312 629 l 25
 184.611328125 739 l 25xe0
EndSplineSet
EndChar

StartChar: bar
Encoding: 124 124 118
Width: 205
VWidth: 0
Flags: HW
VStem: 50 105<-134 754>
LayerCount: 2
Back
Fore
SplineSet
224.07421875 754 m 1
 329.07421875 754 l 1
 124.063476562 -134 l 1
 19.0634765625 -134 l 1
 224.07421875 754 l 1
EndSplineSet
EndChar

StartChar: asciitilde
Encoding: 126 126 119
Width: 568
VWidth: 0
Flags: HW
LayerCount: 2
Back
Fore
SplineSet
582.91796875 281.200195312 m 1
 304.934570312 134 347.391601562 400.200195312 112.90234375 271.600585938 c 1
 143.5 405 l 1
 395.127929688 531.600585938 344.30078125 266.400390625 613.5625 412.200195312 c 1
 582.91796875 281.200195312 l 1
EndSplineSet
EndChar

StartChar: quotedbl.alt
Encoding: 259 -1 120
Width: 359
VWidth: 0
Flags: W
HStem: 476 224<26 153 206 333>
VStem: 26 127<476 700> 206 127<476 700>
LayerCount: 2
Back
Fore
SplineSet
153 476 m 5
 26 476 l 5
 26 700 l 1
 153 700 l 1
 153 476 l 5
333 476 m 5
 206 476 l 5
 206 700 l 1
 333 700 l 1
 333 476 l 5
EndSplineSet
Validated: 1
EndChar

StartChar: TradeMarkSign
Encoding: 260 8482 121
Width: 403
VWidth: 0
Flags: HW
HStem: 653 47<26 72 120 165>
VStem: 72 48<484 653> 188 48<484 522> 330 47<484 700>
LayerCount: 2
Back
Refer: 96 36 N 1 0 0 1 285.617 0 2
Fore
SplineSet
188 484 m 1
 188 628 l 1
 191 628 l 1
 236 522 l 1
 236 484 l 1
 188 484 l 1
188 700 m 1
 225 700 l 1
 281 564 l 1
 313 636 l 1
 317 636 l 1
 317 529 l 1
 298 484 l 1
 265 484 l 1
 188 669 l 1
 188 700 l 1
330 700 m 1
 377 700 l 1
 377 484 l 1
 330 484 l 1
 330 700 l 1
165 700 m 1
 165 653 l 1
 120 653 l 1
 120 484 l 1
 72 484 l 1
 72 653 l 1
 26 653 l 1
 26 700 l 1
 165 700 l 1
EndSplineSet
EndChar

StartChar: igrave
Encoding: 236 236 128
Width: 199
VWidth: 0
HStem: 0 21G<39 161> 0 21G<39 161> 496 20G<39 161>
VStem: 39 122<0 516>
LayerCount: 2
Back
Fore
SplineSet
161 0 m 1xb0
 39 0 l 1
 39 516 l 1
 161 516 l 1
 161 0 l 1xb0
53.5 577 m 1
 -19.5 729 l 1
 107.5 729 l 1
 144.5 577 l 1
 53.5 577 l 1
EndSplineSet
EndChar

StartChar: tilde
Encoding: 261 732 149
Width: 333
VWidth: 0
Flags: W
VStem: 26.1201 280.681
LayerCount: 2
Back
Fore
SplineSet
306.80078125 114.075195312 m 1
 160.400390625 25.7548828125 149 181.474609375 26.1201171875 104.315429688 c 1
 26 206.354492188 l 1
 159.440429688 282.315429688 165.680664062 127.1953125 307.041015625 214.674804688 c 1
 306.80078125 114.075195312 l 1
EndSplineSet
EndChar

StartChar: acute
Encoding: 180 180 150
Width: 263
VWidth: 0
Flags: W
HStem: 605 152
LayerCount: 2
Back
Fore
SplineSet
141 605 m 5
 214 757 l 5
 87 757 l 5
 50 605 l 5
 141 605 l 5
EndSplineSet
EndChar

StartChar: guillemotright
Encoding: 187 187 151
Width: 414
VWidth: 0
Flags: W
LayerCount: 2
Back
Fore
SplineSet
237 477.180664062 m 5
 448.200195312 320.700195312 l 5
 448.200195312 259.259765625 l 5
 237 101.819335938 l 5
 237 223.740234375 l 5
 326.280273438 291.900390625 l 5
 237 352.380859375 l 5
 237 477.180664062 l 5
25.7998046875 477.180664062 m 5
 237 320.700195312 l 5
 237 259.259765625 l 5
 25.7998046875 101.819335938 l 5
 25.7998046875 223.740234375 l 5
 115.080078125 291.900390625 l 5
 25.7998046875 352.380859375 l 5
 25.7998046875 477.180664062 l 5
EndSplineSet
EndChar

StartChar: Oslash
Encoding: 216 216 152
Width: 662
VWidth: 0
Flags: HW
HStem: -5 142<263.632 304 359 399.46> 564 141<264.089 305 359 399.65>
VStem: 108 141<156.794 549.004> 415 141<156.794 548.717>
LayerCount: 2
Back
Fore
SplineSet
584 658 m 5
 662 570 l 5
 78 43 l 5
 0 131 l 5
 584 658 l 5
EndSplineSet
Refer: 14 79 N 1 0 0 1 78 0 2
EndChar

StartChar: oslash
Encoding: 248 248 153
Width: 498
VWidth: 0
Flags: HW
HStem: -1 118<191.634 231 272 310.159> 398 118<191.894 231 272 309.899>
VStem: 67 120<119.657 394.936> 314 117<119.345 394.936>
LayerCount: 2
Back
Fore
SplineSet
445 490 m 5
 498 430 l 5
 53 22 l 1
 0 82 l 1
 445 490 l 5
EndSplineSet
Refer: 43 111 N 1 0 0 1 39 0 2
EndChar

StartChar: dieresis
Encoding: 168 168 154
Width: 320
VWidth: 0
Flags: HMW
LayerCount: 2
Back
Fore
SplineSet
170 678 m 4
 170 720 203 754 245 754 c 4
 287 754 320 720 320 678 c 4
 320 636 287 603 245 603 c 4
 203 603 170 636 170 678 c 4
0 678 m 4
 0 720 33 754 75 754 c 4
 117 754 150 720 150 678 c 4
 150 636 117 603 75 603 c 4
 33 603 0 636 0 678 c 4
EndSplineSet
EndChar

StartChar: cent
Encoding: 162 162 155
Width: 494
VWidth: 0
Flags: W
VStem: 32 141<146.724 552.349> 158 71<-48 15.6551 684.188 749> 283 71<-48 21.3751 675.758 749> 330 138<149.896 182 516 548.923>
LayerCount: 2
Back
Fore
SplineSet
158 749 m 1x40
 229 749 l 1
 229 705 l 1
 229 595 l 1
 229 564 l 1x40
 183 563 173 523 173 518 c 2
 173 181 l 2x80
 173 176 183 136 229 136 c 1
 229 86 l 1
 229 -5 l 1
 229 -48 l 1
 158 -48 l 1
 158 6.92085424276 l 1x40
 67.7227036621 39.7374100228 32 132.199246138 32 181 c 2
 32 518 l 2x80
 32 566.800753862 67.7227036621 659.924121526 158 692.987632461 c 1
 158 749 l 1x40
283 749 m 1x20
 354 749 l 1
 354 687.381490649 l 1x20
 417.439855503 655.936640029 468 586.783806216 468 516 c 1
 330 480 l 1
 330 495 l 2x10
 330 509 330 520 325 532 c 0
 315 555 283 564 283 564 c 1
 283 595 l 1
 283 705 l 1
 283 749 l 1x20
283 136 m 1
 283 136 315 143 325 166 c 0
 330 178 330 189 330 203 c 2
 330 215 l 1
 468 182 l 1x10
 468 103.842880636 417.439855503 39.2771979657 354 10.7508698125 c 1
 354 -48 l 1
 283 -48 l 1
 283 -5 l 1
 283 86 l 1
 283 136 l 1
EndSplineSet
EndChar

StartChar: iacute
Encoding: 237 237 171
Width: 199
VWidth: 0
HStem: 0 21G<39 161> 0 21G<39 161> 496 20G<39 161>
VStem: 39 122<0 516>
LayerCount: 2
Back
Fore
SplineSet
161 0 m 1xb0
 39 0 l 1
 39 516 l 1
 161 516 l 1
 161 0 l 1xb0
144.5 577 m 1
 217.5 729 l 1
 90.5 729 l 1
 53.5 577 l 1
 144.5 577 l 1
EndSplineSet
EndChar

StartChar: idieresis
Encoding: 239 239 172
Width: 199
VWidth: 0
HStem: 0 21G<39 161> 0 21G<39 161> 496 20G<39 161> 576 151<-39.25 67.25 130.75 237.25>
VStem: -61 150<597.75 704.75> 39 122<0 516> 109 150<597.75 704.75>
LayerCount: 2
Back
Fore
SplineSet
161 0 m 1xb4
 39 0 l 1
 39 516 l 1
 161 516 l 1
 161 0 l 1xb4
109 651 m 0x32
 109 693 142 727 184 727 c 0
 226 727 259 693 259 651 c 0
 259 609 226 576 184 576 c 0
 142 576 109 609 109 651 c 0x32
-61 651 m 0x38
 -61 693 -28 727 14 727 c 0
 56 727 89 693 89 651 c 0
 89 609 56 576 14 576 c 0
 -28 576 -61 609 -61 651 c 0x38
EndSplineSet
EndChar

StartChar: cedilla
Encoding: 184 184 180
Width: 219
VWidth: 0
Flags: W
HStem: -35.6504 90.6006<25.6992 83.6296>
VStem: 101.5 91.5<72.7339 122.65>
LayerCount: 2
Back
Fore
SplineSet
101.5 122.650390625 m 5
 101.5 68.0498046875 62.099609375 55.25 25.69921875 54.9501953125 c 4
 25.69921875 -35.650390625 l 21
 152.399414062 -35.150390625 193 46.349609375 193 122.650390625 c 0
 101.5 122.650390625 l 5
EndSplineSet
EndChar

StartChar: ae
Encoding: 230 230 181
Width: 666
VWidth: 0
Flags: W
HStem: 1 112<129.768 180 229 263.822 385.743 529.931> 207.5 116<384 525.458> 400.401 115.599<142.577 266.651 386.546 429.458 478.458 524.125>
VStem: 26 101<114.88 179.763> 268 116<116.437 207.5 324.598 396.169> 525.458 114<323.5 398.09>
LayerCount: 2
Back
Fore
SplineSet
481.533203125 402.395507812 m 2
 478.458007812 402.319335938 l 1
 478.458007812 516 l 1
 483.958007812 516 l 2
 553.798828125 516 639.458007812 450.33984375 639.458007812 377.958984375 c 2
 639.458007812 207.5 l 1
 384 207.5 l 1
 384 143 l 2
 384 121.312210228 400.188489798 108.661661116 425.12890625 108.131835938 c 2
 483.67578125 107.993164062 l 2
 516.280236466 108.00051403 536.432981185 133.657506842 541.000976562 156.54296875 c 1
 640 120.118164062 l 1
 624.278099928 54.9004849797 555.367613638 0 483.958007812 0 c 6
 424.958007812 0 l 2
 379.88153776 0 345.179295774 9.44759878445 321 30 c 1
 298 12 268 1 232 1 c 2
 229 1 l 1
 229 113 l 1
 232 113 l 2
 262 114 268 146 268 149 c 2
 268 227 l 1
 230 205 153 190 139 183 c 0
 133 180 127 173 127 162 c 2
 127 149 l 2
 127 129 137 113 163 113 c 2
 180 113 l 1
 180 1 l 1
 83 1 26 53 26 110 c 2
 26 180 l 2
 26 213 33 233 75 257 c 0
 118 282 268 311 268 351 c 2
 268 363 l 2
 268 387 266 407 231 407 c 2
 178 407 l 2
 155 407 138 390 138 353 c 2
 138 349 l 1
 33 389 l 1
 33 391 l 2
 33 462 110 519 178 519 c 2
 233 518.988020252 l 2
 273.207254791 518.505534041 305.232234454 503.497744279 329.257017243 482.825792644 c 1
 353.617436403 502.282274013 385.226474961 516 423.958007812 516 c 2
 429.458007812 516 l 1
 429.458007812 400.401367188 l 1
 426.458007812 400.401367188 l 2
 400.671549753 400.401367188 386.818843577 384.306908108 384 372.724367093 c 2
 384 323.5 l 1
 525.458007812 323.5 l 1
 525.458007812 368.733398438 l 2
 525.458007812 395.27734375 501.698242188 402.891601562 481.533203125 402.395507812 c 2
EndSplineSet
EndChar

StartChar: mu
Encoding: 181 181 182
Width: 468
VWidth: 0
Flags: HW
HStem: 0 21G<26 150> 0 21G<26 150> 179 121<153.794 192 234 272.206> 678 20G<26 150 276 400> 680 20G<276 400>
VStem: 26 124<0 356 303.782 698> 276 124<304.563 698 305.782 700>
LayerCount: 2
Back
Fore
SplineSet
276 700 m 5x2e
 400 700 l 5
 400 328 l 5
 400 325 406 302 437 302 c 4
 442 302 l 5
 442 181 l 5
 437 181 l 4
 330 181 276 275 276 323 c 4
 276 700 l 5x2e
150 356 m 25
 150 0 l 25
 26 0 l 25xa6
 26 356 l 25
 150 356 l 25
EndSplineSet
Refer: 59 117 N 1 0 0 1 -4 184 2
EndChar

StartChar: thorn
Encoding: 254 254 183
Width: 422
VWidth: 0
Flags: W
HStem: 0 118<203 271.49> 398 118<196 274.73> 680 20G<30 155>
VStem: 30 125<-182 700> 276 120<120.581 391.421>
LayerCount: 2
Back
Fore
SplineSet
232 0 m 0
 203 0 l 1
 203 118 l 1
 234 118 l 1
 271 119 276 134 276 143 c 0
 276 372 l 1
 276 385 258 398 228 398 c 0
 196 398 l 1
 196 516 l 1
 228 516 l 0
 335 516 396 431 396 375 c 0
 396 139 l 1
 396 86 345 0 232 0 c 0
30 700 m 5
 155 700 l 5
 155 -182 l 1
 30 -182 l 1
 30 700 l 5
EndSplineSet
EndChar

StartChar: Thorn
Encoding: 222 222 184
Width: 474
VWidth: 0
Flags: W
HStem: 0 21G<26 167> 0 21G<26 167> 208 139<221 294.329> 451 139<221 296.296> 680 20G<26 167>
VStem: 26 141<0 700> 305 143<356.352 443.217>
LayerCount: 2
Back
Fore
SplineSet
221 347 m 5x3e
 254 347 l 6
 261 347 305 348 305 398 c 4
 305 449 263 451 254 451 c 6
 221 451 l 5
 221 590 l 5
 402 590 448 516 448 402 c 4
 448 259 378 208 221 208 c 5
 221 347 l 5x3e
26 700 m 1
 167 700 l 1
 167 0 l 1
 26 0 l 1xbe
 26 700 l 1
EndSplineSet
EndChar

StartChar: ring
Encoding: 262 730 187
Width: 244
VWidth: 0
Flags: W
HStem: 430.191 64.208<92.7682 151.617> 557.599 64.208<92.7682 151.617>
VStem: 26.3848 64.208<496.575 555.423> 153.792 64.208<496.575 555.423>
LayerCount: 2
Back
Fore
SplineSet
90.5927734375 525.999023438 m 4
 90.5927734375 508.399414062 104.592773438 494.399414062 122.192382812 494.399414062 c 4
 139.791992188 494.399414062 153.791992188 508.399414062 153.791992188 525.999023438 c 4
 153.791992188 543.598632812 139.791992188 557.598632812 122.192382812 557.598632812 c 4
 104.592773438 557.598632812 90.5927734375 543.598632812 90.5927734375 525.999023438 c 4
26.384765625 525.999023438 m 4
 26.384765625 579.360351562 68.8310546875 621.806640625 122.192382812 621.806640625 c 4
 175.553710938 621.806640625 218 579.360351562 218 525.999023438 c 4
 218 472.637695312 175.553710938 430.19140625 122.192382812 430.19140625 c 4
 68.8310546875 430.19140625 26.384765625 472.637695312 26.384765625 525.999023438 c 4
EndSplineSet
EndChar

StartChar: multiply
Encoding: 215 215 190
Width: 697
VWidth: 0
Flags: W
LayerCount: 2
Back
Fore
SplineSet
260.236328125 417.48828125 m 1
 100.508789062 257.154296875 l 1
 189.772460938 168.227539062 l 1
 349.233398438 328.29296875 l 1
 507.448242188 169.727539062 l 1
 596.642578125 258.723632812 l 1
 438.16015625 417.557617188 l 1
 597 577 l 1
 507.736328125 665.926757812 l 1
 349.163085938 506.751953125 l 1
 189.094726562 667.176757812 l 1
 99.900390625 578.1796875 l 1
 260.236328125 417.48828125 l 1
EndSplineSet
EndChar

StartChar: Eth
Encoding: 208 208 191
Width: 501
VWidth: 0
Flags: HW
HStem: 0 21G<83 224 83 224 278 308 278 308> 292 128<26 280> 680 20G<83 224 278 349.5>
VStem: 83 141<0 700> 334 141<158.175 544.574>
LayerCount: 2
Back
Fore
SplineSet
26 420 m 25
 280 420 l 25
 280 292 l 25
 26 292 l 25
 26 420 l 25
EndSplineSet
Refer: 2 68 N 1 0 0 1 51 0 2
EndChar

StartChar: AE
Encoding: 198 198 193
Width: 727
VWidth: 0
Flags: W
HStem: 0 141<478 701> 277 141<478 607> 560 140<319.958 337 478 701>
VStem: 337 141<141 148 268 277 418 560>
LayerCount: 2
Back
Fore
SplineSet
701 141 m 1
 701 0 l 1
 337 0 l 1
 337 148 l 1
 272 148 l 1
 301 268 l 1
 337 268 l 1
 337 560 l 1
 319.957860616 560 l 1
 182 0 l 1
 26 0 l 1
 206 700 l 1
 701 700 l 5
 701 560 l 1
 483 560 l 1
 478 560 l 1
 478 418 l 1
 607 418 l 1
 607 277 l 1
 478 277 l 1
 478 141 l 1
 701 141 l 1
EndSplineSet
EndChar

StartChar: germandbls
Encoding: 223 223 196
Width: 522
VWidth: 0
Flags: W
HStem: 0.164062 108.961<198.924 369.197> 406.102 110.531<294.333 347.258> 586.2 118.8<172.521 276.145>
VStem: 25.8809 129<0 567.988> 191.286 155.972<406.102 472.585> 293.82 111.805<516.633 571.288> 378.549 117.451<119.388 192.411>
LayerCount: 2
Back
Fore
SplineSet
154.880859375 0 m 1xf4
 25.880859375 0 l 1
 25.880859375 457 l 1
 26.880859375 531 16.1728515625 705 225.880859375 705 c 0
 396.040039062 705 405.49609375 575.052734375 405.625 518 c 2
 405.880859375 405 l 1
 294.333007812 406.1015625 l 1
 293.8203125 519 l 2
 293.581054688 571.643554688 259.3359375 586.435546875 224.880859375 586.200195312 c 0
 173.625 585.850585938 154.880859375 554.0390625 154.880859375 498 c 2
 154.880859375 0 l 1xf4
347.333007812 406.1015625 m 1
 344.534179688 405.80859375 l 2
 304.416992188 401.57421875 305.736328125 362.5625 305.80859375 361.885742188 c 0
 306.380859375 356.501953125 300.59375 325.19921875 391.99609375 298.534179688 c 0
 442.708007812 283.740234375 496 242.586914062 496 159.977539062 c 0
 496 57.2802734375 420.094726562 0.1640625 327.069335938 0.1640625 c 0
 198.923828125 0.1640625 l 1
 198.923828125 109.125 l 1
 326.8515625 109.31640625 l 0
 341.616210938 110.280273438 377.623046875 120.536132812 378.548828125 152.125976562 c 0
 379.895507812 198.10546875 332.477539062 201.497070312 275.772460938 227.7265625 c 0
 226.909179688 251.330078125 191.286132812 286.939453125 191.286132812 370.557617188 c 0
 191.286132812 472.584960938 289.920898438 516.6328125 344.115234375 516.6328125 c 0
 347.2578125 516.6328125 l 1xfa
 347.333007812 406.1015625 l 1
EndSplineSet
EndChar

StartChar: eth
Encoding: 240 240 197
Width: 420
VWidth: 0
Flags: HW
HStem: -1 118<152.634 192 233 271.159> 398 118<152.894 192 233 270.899>
VStem: 28 120<119.657 394.936> 275 117<119.345 394.936 364 564.404>
LayerCount: 2
Back
Fore
SplineSet
192 598 m 25
 380 657 l 25
 398 599 l 25
 210 541 l 25
 192 598 l 25
275 364 m 1
 275 582 271 610 192 647 c 1
 192 714 l 1
 320.603238373 690.285927676 392 599 392 442 c 6
 392 364 l 1
 275 364 l 1
EndSplineSet
Refer: 43 111 N 1 0 0 1 0 0 2
EndChar

StartChar: currency
Encoding: 164 164 198
Width: 656
VWidth: 0
Flags: W
HStem: 133 118<266.639 310 351 392.936> 477 118<266.679 310 351 392.249>
VStem: 146 120<273 453> 393 117<272 454>
LayerCount: 2
Back
Fore
SplineSet
50 540 m 25
 122 622 l 25
 278 483 l 1
 207 402 l 1
 50 540 l 25
377 247 m 25
 449 329 l 25
 605 190 l 1
 534 109 l 1
 377 247 l 25
606 540 m 25
 449 402 l 1
 378 483 l 1
 534 622 l 25
 606 540 l 25
279 247 m 25
 122 109 l 1
 51 190 l 1
 207 329 l 25
 279 247 l 25
146 455 m 0
 146 500 197 595 304 595 c 2
 310 595 l 1
 310 477 l 1
 304 477 l 0
 271 477 266 453 266 452 c 1
 266 276 l 1
 266 273 274 251 304 251 c 0
 310 251 l 1
 310 133 l 1
 304 133 l 0
 196 133 146 231 146 275 c 0
 146 455 l 0
351 477 m 1
 351 595 l 1
 357 595 l 0
 460 595 510 500 510 455 c 0
 510 275 l 0
 510 230 461 133 357 133 c 0
 351 133 l 1
 351 247 l 1
 357 247 l 0
 388 248 393 272 393 274 c 1
 393 451 l 1
 393 454 387 477 357 477 c 0
 351 477 l 1
EndSplineSet
EndChar

StartChar: brokenbar
Encoding: 166 166 199
Width: 222
VWidth: 0
Flags: W
VStem: 50 121.999
LayerCount: 2
Back
Fore
SplineSet
-422 -120 m 1049,0,-1
50 754 m 1,1,-1
 50 399 l 1,2,-1
 171.999023438 399 l 1,3,-1
 171.999023438 754 l 1,4,-1
 50 754 l 1,1,-1
50 221 m 1,5,-1
 50 -134 l 1,6,-1
 171.999023438 -134 l 1,7,-1
 171.999023438 221 l 1,8,-1
 50 221 l 1,5,-1
EndSplineSet
EndChar

StartChar: section
Encoding: 167 167 200
Width: 547
VWidth: 0
Flags: W
VStem: 26 141<306.633 399.039> 88 131<530.697 616.103> 328 131<6.89676 92.0287> 380 141<223.961 315.871>
LayerCount: 2
Back
Fore
SplineSet
363.216796875 222.702148438 m 1x10
 354.532226562 227.752929688 345.43359375 232.482421875 336 237 c 0
 325.266601562 242.1875 312.96484375 246.959960938 300 251.727539062 c 1
 300 97.103515625 l 1
 317.06640625 84.21484375 328 68.41796875 328 47 c 0
 328 17 307 -4 274 -4 c 2
 170 -4 l 1
 170 -136 l 1
 282 -136 l 2
 350 -136 459 -87 459 52 c 0x20
 459 79.87890625 455.333984375 103.599609375 448.620117188 124.0390625 c 1
 492.345703125 158.134765625 521 209.939453125 521 272 c 0
 521 374 454 421 393 457 c 0
 365.366210938 473.498046875 330.928710938 485.232421875 300 498.02734375 c 1
 300 351.350585938 l 1
 342.856445312 333.45703125 380 309.78125 380 266 c 0
 380 243.333984375 373.049804688 230.361328125 363.216796875 222.702148438 c 1x10
265 759 m 2
 197 759 88 710 88 571 c 0x40
 88 543.12109375 91.666015625 519.400390625 98.3798828125 498.9609375 c 1
 54.654296875 464.865234375 26 413.060546875 26 351 c 0
 26 249 93 202 154 166 c 0
 181.3359375 149.6796875 215.331054688 138.020507812 246 125.385742188 c 1
 246 272.068359375 l 1
 203.567382812 289.913085938 167 313.559570312 167 357 c 0x80
 167 379.666015625 173.950195312 392.638671875 183.783203125 400.297851562 c 1
 192.467773438 395.247070312 201.56640625 390.517578125 211 386 c 0
 221.45703125 380.9453125 233.40234375 376.286132812 246 371.640625 c 1
 246 526.66015625 l 1
 229.5078125 539.409179688 219 555.00390625 219 576 c 0x40
 219 606 240 627 273 627 c 2
 377 627 l 1
 377 759 l 1
 265 759 l 2
EndSplineSet
EndChar

StartChar: uni00B2
Encoding: 178 178 205
Width: 245
VWidth: 0
Flags: HMW
LayerCount: 2
Back
Fore
SplineSet
121.9453125 638.8515625 m 5
 121.9453125 700.35546875 l 5
 128.568359375 700.35546875 l 6
 197.765625 700.35546875 218.5546875 643.395507812 219 609.083984375 c 4
 219 560.000976562 195.998046875 546.158203125 169.520507812 527.4921875 c 4
 138.852539062 505.895507812 123.013671875 493.344726562 108.703125 471.037109375 c 6
 107.639648438 469.379882812 l 5
 34.2470703125 469.379882812 l 5
 36.7724609375 474.55859375 l 6
 63.13671875 528.603515625 106.565429688 552.71484375 118.8984375 562.9921875 c 4
 138.740234375 580.06640625 158.2734375 583.951171875 158.665039062 608.224609375 c 4
 158.665039062 629.252929688 147.94921875 637.907226562 125.4140625 638.7265625 c 6
 121.9453125 638.8515625 l 5
215.544921875 451.091796875 m 5
 215.544921875 389.029296875 l 5
 33.81640625 389.029296875 l 5
 33.81640625 451.091796875 l 5
 215.544921875 451.091796875 l 5
102.331054688 638.291992188 m 6
 98.3388671875 636.6640625 84.6474609375 629.655273438 84.6474609375 608.1953125 c 6
 84.6474609375 603.752929688 l 5
 26.146484375 616.1484375 l 5
 26.4931640625 619.379882812 l 6
 30.5224609375 657.00390625 58.3017578125 694.4609375 101.333007812 699.896484375 c 6
 105.383789062 700.408203125 l 5
 105.383789062 645.4921875 l 5
 105.383789062 638.291992188 l 5
 102.331054688 638.291992188 l 6
EndSplineSet
EndChar

StartChar: uni00B3
Encoding: 179 179 206
Width: 247
VWidth: 0
Flags: W
HStem: 392.485 59.9043<104.033 107.385 126.135 156.017> 516.038 60.7686<97.1602 156.21> 640.454 60.8486<104.033 107.385 124.809 154.482>
VStem: 157.208 63.792<453.01 512.902 580.267 639.688>
LayerCount: 2
Back
Fore
SplineSet
77.66796875 623.227539062 m 5
 25.85546875 654.0234375 l 5
 27.6748046875 657.114257812 l 4
 42.46875 682.21875 68.669921875 701.220703125 103.78515625 701.220703125 c 4
 107.384765625 701.220703125 l 5
 107.384765625 639.829101562 l 5
 104.033203125 639.59765625 l 4
 92.455078125 638.80078125 85.0244140625 634.262695312 79.564453125 626.073242188 c 4
 77.66796875 623.227539062 l 5
129.271484375 452.389648438 m 6
 145.454101562 452.389648438 157.208007812 467.231445312 157.208007812 482.91796875 c 4
 157.208007812 506.560546875 151.236328125 516.038085938 100.759765625 516.038085938 c 4
 97.16015625 516.038085938 l 5
 97.16015625 576.806640625 l 5
 100.759765625 576.806640625 l 4
 151.8828125 576.806640625 157.208007812 587.821289062 157.208007812 611.654296875 c 4
 157.208007812 632.6640625 141.611328125 640.454101562 130.13671875 640.454101562 c 4
 124.80859375 640.454101562 l 5
 124.80859375 701.302734375 l 5
 128.489257812 701.219726562 l 4
 188.614257812 699.875976562 218.840820312 649.249023438 218.840820312 615.541992188 c 4
 218.840820312 577.125 207.6875 556.743164062 194.795898438 546.983398438 c 5
 207.112304688 536.586914062 221 515.866210938 221 482.0546875 c 4
 221 425.967773438 166.755859375 392.485351562 130.569335938 392.485351562 c 4
 126.134765625 392.485351562 l 5
 125.642578125 452.389648438 l 5
 129.271484375 452.389648438 l 6
79.564453125 467.203125 m 6
 85.0244140625 459.012695312 92.455078125 454.475585938 104.033203125 453.677734375 c 4
 107.384765625 453.446289062 l 5
 107.384765625 392.0546875 l 5
 103.78515625 392.0546875 l 4
 69.03515625 392.0546875 42.8828125 406.181640625 27.56640625 436.359375 c 4
 26.04296875 439.36328125 l 5
 77.66796875 470.047851562 l 5
 79.564453125 467.203125 l 6
EndSplineSet
EndChar

StartChar: uni00B9
Encoding: 185 185 207
Width: 186
VWidth: 0
Flags: W
HStem: 391.067 309.166<95.2002 160.393>
VStem: 60 100.393<609.805 672.91> 92.833 67.5596<391.067 609.805>
LayerCount: 2
Back
Fore
SplineSet
92.8330078125 609.8046875 m 1xa0
 60 583.884765625 l 1
 60 672.91015625 l 1xc0
 95.2001953125 700.233398438 l 1
 160.392578125 700.233398438 l 1
 160.392578125 391.067382812 l 1
 92.8330078125 391.067382812 l 1
 92.8330078125 609.8046875 l 1xa0
EndSplineSet
EndChar

StartChar: guillemotleft
Encoding: 171 171 208
Width: 475
VWidth: 0
Flags: W
LayerCount: 2
Back
Fore
SplineSet
237.799804688 477.180664062 m 1
 26.599609375 320.700195312 l 1
 26.599609375 259.259765625 l 1
 237.799804688 101.819335938 l 1
 237.799804688 223.740234375 l 1
 148.51953125 291.900390625 l 1
 237.799804688 352.380859375 l 1
 237.799804688 477.180664062 l 1
449 477.180664062 m 1
 237.799804688 320.700195312 l 1
 237.799804688 259.259765625 l 1
 449 101.819335938 l 1
 449 223.740234375 l 1
 359.719726562 291.900390625 l 1
 449 352.380859375 l 1
 449 477.180664062 l 1
EndSplineSet
EndChar

StartChar: onequarter
Encoding: 188 188 209
Width: 560
VWidth: 0
Flags: W
HStem: 71.25 66.5<345.7 367.591 461.091 488.091> 681.5 20G<88.5644 181.341 445.216 534>
VStem: 75.3408 106<597.154 671.484> 113.341 68<349.25 597.154> 269.591 98<71.25 136.655> 393.091 95<71.25 137.75> 393.091 68<-1.25 71.25 137.75 352.25>
LayerCount: 2
Back
Fore
SplineSet
25.6591796875 -1.5 m 1xc8
 457.501953125 701.5 l 1
 534 701.5 l 1
 109.186523438 -1.5 l 1
 25.6591796875 -1.5 l 1xc8
367.590820312 137.75 m 1
 367.590820312 71.25 l 1
 269.590820312 71.25 l 1
 269.590820312 136.655273438 l 1
 367.590820312 304.802734375 l 1
 367.590820312 175.344726562 l 1
 345.700195312 137.75 l 1
 367.590820312 137.75 l 1
488.090820312 137.75 m 1xcc
 488.090820312 71.25 l 1xcc
 461.090820312 71.25 l 1
 461.090820312 -1.25 l 1
 393.090820312 -1.25 l 1
 393.090820312 352.25 l 1
 461.090820312 352.25 l 1
 461.090820312 137.75 l 1xca
 488.090820312 137.75 l 1xcc
113.340820312 597.154296875 m 1xd8
 75.3408203125 567.154296875 l 1
 75.3408203125 671.484375 l 1xe8
 114.327148438 701.75 l 1
 181.340820312 701.75 l 1
 181.340820312 349.25 l 1
 113.340820312 349.25 l 1
 113.340820312 597.154296875 l 1xd8
EndSplineSet
EndChar

StartChar: onehalf
Encoding: 189 189 210
Width: 581
VWidth: 0
Flags: W
HStem: -1 66.5<346 551> 288.054 65.9463<421.812 423.5 448 485.728> 681.75 19.75G<88.7236 181.5 445.375 534.159>
VStem: 75.5 106<597.154 671.484> 113.5 68<349.25 597.154> 490.5 64.5<214.398 283.528>
LayerCount: 2
Back
Fore
SplineSet
113.5 597.154296875 m 1xec
 75.5 567.154296875 l 1
 75.5 671.484375 l 1xf4
 114.486328125 701.75 l 1
 181.5 701.75 l 1
 181.5 349.25 l 1
 113.5 349.25 l 1
 113.5 597.154296875 l 1xec
448 288.053710938 m 1
 448 354 l 1
 453 354 l 2
 531.112304688 354 554.494140625 289.946289062 555 251.009765625 c 2
 555 249.5 l 2
 555 196.829101562 529.321289062 180.244140625 498.86328125 158.7734375 c 0
 463.364257812 133.7734375 444.606445312 118.947265625 427.762695312 92.6904296875 c 2
 427.319335938 92 l 1
 348.099609375 92 l 1
 349.151367188 94.1572265625 l 2
 379.336914062 156.036132812 428.791992188 183.362304688 443.530273438 195.64453125 c 0
 465.55859375 214.598632812 490.016601562 220.055664062 490.5 250.01171875 c 2
 490.5 251 l 2
 490.5 275.122070312 476.4296875 287.01953125 449.4453125 288.000976562 c 2
 448 288.053710938 l 1
551 65.5 m 1
 551 -1 l 1
 346 -1 l 1
 346 65.5 l 1
 551 65.5 l 1
25.818359375 -1.5 m 1
 457.661132812 701.5 l 1
 534.159179688 701.5 l 1
 109.345703125 -1.5 l 1
 25.818359375 -1.5 l 1
422.185546875 287.5 m 2
 419.6875 286.694335938 399.5 278.365234375 399.5 250 c 2
 399.5 248.1484375 l 1
 337.364257812 261.313476562 l 1
 337.508789062 262.66015625 l 2
 342.068359375 305.216796875 373.482421875 347.383789062 421.811523438 353.48828125 c 2
 423.5 353.701171875 l 1
 423.5 290.5 l 1
 423.5 287.5 l 1
 422.185546875 287.5 l 2
EndSplineSet
EndChar

StartChar: threequarters
Encoding: 190 190 211
Width: 584
VWidth: 0
Flags: W
HStem: 71.25 66.5<369.7 391.591 485.091 512.091> 348.5 64<112.944 114.341 141.354 172.641> 491.5 65<107.841 174.257> 635.5 65.0342<112.944 114.341 139.841 173.397>
VStem: 177.341 68.5<415.879 486.165 562.114 633.025> 293.591 98<71.25 136.655> 417.091 95<71.25 137.75> 417.091 68<-1.25 71.25 137.75 352.25>
LayerCount: 2
Back
Fore
SplineSet
49.6591796875 -1.5 m 1xfc
 481.501953125 701.5 l 1
 558 701.5 l 1
 133.1875 -1.5 l 1
 49.6591796875 -1.5 l 1xfc
391.590820312 137.75 m 1
 391.590820312 71.25 l 1
 293.590820312 71.25 l 1
 293.590820312 136.655273438 l 1
 391.590820312 304.802734375 l 1
 391.590820312 175.344726562 l 1
 369.700195312 137.75 l 1
 391.590820312 137.75 l 1
512.090820312 137.75 m 1xfe
 512.090820312 71.25 l 1xfe
 485.090820312 71.25 l 1
 485.090820312 -1.25 l 1
 417.090820312 -1.25 l 1
 417.090820312 352.25 l 1
 485.090820312 352.25 l 1
 485.090820312 137.75 l 1xfd
 512.090820312 137.75 l 1xfe
81.798828125 616.482421875 m 1
 26.2900390625 649.473632812 l 1
 27.048828125 650.76171875 l 0
 43.771484375 679.140625 73.2568359375 700.5 112.840820312 700.5 c 0
 114.340820312 700.5 l 1
 114.340820312 634.599609375 l 1
 112.944335938 634.50390625 l 0
 98.84375 633.53125 89.337890625 627.791992188 82.5888671875 617.66796875 c 0
 81.798828125 616.482421875 l 1
142.340820312 412.5 m 2
 162.842773438 412.5 177.340820312 431.1640625 177.340820312 450.5 c 0
 177.340820312 479.55078125 168.131835938 491.5 109.340820312 491.5 c 0
 107.840820312 491.5 l 1
 107.840820312 556.5 l 1
 109.340820312 556.5 l 0
 169.041992188 556.5 177.340820312 570.372070312 177.340820312 599.5 c 0
 177.340820312 625.534179688 157.721679688 635.5 143.340820312 635.5 c 0
 139.840820312 635.5 l 1
 139.840820312 700.534179688 l 1
 141.374023438 700.5 l 0
 209.306640625 698.978515625 243.340820312 641.724609375 243.340820312 604 c 0
 243.340820312 557.206054688 228.958984375 534.169921875 213.64453125 524.846679688 c 1
 228.227539062 513.861328125 245.840820312 490.403320312 245.840820312 449.5 c 0
 245.840820312 386.450195312 184.518554688 348.5 143.840820312 348.5 c 0
 141.353515625 348.5 l 1
 140.828125 412.5 l 1
 142.340820312 412.5 l 2
82.5888671875 430.83203125 m 2
 89.3427734375 420.701171875 98.8486328125 414.96875 112.944335938 413.99609375 c 0
 114.340820312 413.900390625 l 1
 114.340820312 348 l 1
 112.840820312 348 l 0
 73.40234375 348 44.2646484375 363.806640625 27.0029296875 397.821289062 c 0
 26.3681640625 399.072265625 l 1
 81.798828125 432.017578125 l 1
 82.5888671875 430.83203125 l 2
EndSplineSet
EndChar

StartChar: logicalnot
Encoding: 172 172 212
Width: 502
VWidth: 0
Flags: W
HStem: 327 115<26 358>
VStem: 358 118<208 327>
LayerCount: 2
Back
Fore
SplineSet
476 208 m 1
 358 208 l 5
 358 327 l 5
 26 327 l 1
 26 442 l 1
 476 442 l 1
 476 208 l 1
EndSplineSet
EndChar

StartChar: ordmasculine
Encoding: 186 186 213
Width: 230
VWidth: 0
Flags: W
HStem: 361 71<26 204> 469.51 54.9199<88.4458 107.58 122.62 139.272> 645.07 54.9199<88.5686 107.58 122.62 139.165>
VStem: 32.4199 55.7998<524.43 645.07> 141.1 54.4805<522.67 645.07>
LayerCount: 2
Back
Fore
SplineSet
32.419921875 636.889648438 m 2
 32.419921875 657.444335938 55.3798828125 699.990234375 103.440429688 699.990234375 c 0
 107.580078125 699.990234375 l 1
 107.580078125 645.0703125 l 1
 103.440429688 645.0703125 l 0
 90.435546875 645.0703125 88.3525390625 636.1640625 88.2197265625 635.4765625 c 1
 88.2197265625 533.958984375 l 1
 88.4150390625 532.682617188 91.634765625 524.4296875 103.440429688 524.4296875 c 0
 107.580078125 524.4296875 l 1
 107.580078125 469.509765625 l 1
 103.440429688 469.509765625 l 0
 54.908203125 469.509765625 32.419921875 513.409179688 32.419921875 533.490234375 c 0
 32.419921875 636.889648438 l 2
122.620117188 645.0703125 m 1
 122.620117188 699.990234375 l 1
 126.759765625 699.990234375 l 0
 173.099609375 699.990234375 195.580078125 657.408203125 195.580078125 636.889648438 c 0
 195.580078125 533.490234375 l 0
 195.580078125 513.002929688 173.564453125 469.509765625 126.759765625 469.509765625 c 0
 122.620117188 469.509765625 l 1
 122.620117188 522.669921875 l 1
 126.735351562 522.669921875 l 1
 139.091796875 523.069335938 141.012695312 532.364257812 141.099609375 533.081054688 c 1
 141.099609375 635.12109375 l 1
 141.028320312 636.177734375 138.71875 645.0703125 126.759765625 645.0703125 c 0
 122.620117188 645.0703125 l 1
26 432 m 1
 204 432 l 1
 204 361 l 1
 26 361 l 1
 26 432 l 1
EndSplineSet
EndChar

StartChar: ordfeminine
Encoding: 170 170 214
Width: 227
VWidth: 0
Flags: W
HStem: 362.5 68<26 201> 470.54 52.2803<76.0926 98.2803 116.84 133.549 188.604 199.48> 649.18 52.2803<79.7998 98.7197>
VStem: 27.5195 70.7607<482.969 522.82 649.18 682.677> 27.5195 47.4404<522.82 550.726 641.726 648.14> 116.84 82.6406<482.882 522.82> 134 54.04<523.26 568.945 609.511 650.026>
LayerCount: 2
Back
Fore
SplineSet
116.400390625 701.459960938 m 5xea
 119.219726562 701.459960938 l 4
 165.555664062 701.459960938 188.040039062 658.88671875 188.040039062 638.799804688 c 4
 188.040039062 534.51953125 l 4xea
 188.040039062 532.219726562 188.986328125 523.259765625 196.66015625 523.259765625 c 4
 199.48046875 523.259765625 l 5
 199.48046875 470.540039062 l 5
 196.66015625 470.540039062 l 4
 180.501953125 470.540039062 167.359375 475.971679688 158.784179688 482.881835938 c 5
 148.260742188 475.038085938 135.309570312 470.540039062 119.66015625 470.540039062 c 4
 116.83984375 470.540039062 l 5
 116.83984375 522.8203125 l 5xe4
 119.634765625 522.8203125 l 5
 131.518554688 523.215820312 133.944335938 536.17578125 134 537.165039062 c 5
 134 568.9453125 l 5
 115.275390625 559.368164062 85.10546875 553.625976562 79.4111328125 550.778320312 c 4
 77.2353515625 549.690429688 74.9599609375 547.129882812 74.9599609375 542.879882812 c 4
 74.9599609375 537.16015625 l 4xea
 74.9599609375 528.947265625 78.7412109375 522.8203125 89.2998046875 522.8203125 c 4
 98.2802734375 522.8203125 l 5
 98.2802734375 470.540039062 l 5
 96.7802734375 470.540039062 l 4
 53.6455078125 470.540039062 27.51953125 493.776367188 27.51953125 520 c 4xf0
 27.51953125 550.799804688 l 4
 27.51953125 565.682617188 31.0244140625 575.233398438 49.826171875 585.9765625 c 4
 69.9345703125 597.66796875 134 610.2578125 134 626.040039062 c 4
 134 631.3203125 l 4
 134 641.73046875 133.537109375 647.947265625 119.091796875 649.185546875 c 4
 118.9140625 649.200195312 l 5
 116.400390625 650.0390625 l 5
 116.400390625 701.459960938 l 5xea
95.9658203125 649.1796875 m 6
 86.6416015625 648.369140625 79.7998046875 642.620117188 79.7998046875 626.919921875 c 4
 79.7998046875 622.983398438 l 5
 30.599609375 641.725585938 l 5
 30.599609375 643.639648438 l 4
 30.599609375 675.977539062 65.341796875 701.459960938 95.900390625 701.459960938 c 4
 98.7197265625 701.459960938 l 5
 98.7197265625 649.1796875 l 5
 95.9658203125 649.1796875 l 6
26 430.5 m 5
 201 430.5 l 5
 201 362.5 l 5
 26 362.5 l 5
 26 430.5 l 5
EndSplineSet
EndChar

StartChar: paragraph
Encoding: 182 182 215
Width: 444
VWidth: 0
Flags: HMW
LayerCount: 2
Back
Fore
SplineSet
418 705 m 1
 335 705 l 1
 335 -5 l 1
 418 -5 l 1
 418 705 l 1
278 705 m 1
 195 705 l 1
 93 705 26 616.63671875 26 517 c 0
 26 402.640625 91 329 195 329.466796875 c 1
 195 -5 l 1
 278 -5 l 1
 278 323.000976562 l 2
 278.333007812 323.000976562 278.666015625 323 279 323 c 2
 279 462 l 1
 278 462 l 1
 278 566 l 1
 279 566 l 1
 279 705 l 2
 278.666015625 705 278.333007812 704.999023438 278 704.999023438 c 2
 278 705 l 1
EndSplineSet
EndChar

StartChar: circumflex
Encoding: 263 710 216
Width: 270
VWidth: 0
Flags: W
HStem: 514.05 151.9<101.399 107.399 162.2 167.2>
VStem: 25.5996 218.4
LayerCount: 2
Back
Fore
SplineSet
25.599609375 514.049804688 m 29
 101.399414062 665.950195312 l 29
 167.200195312 665.950195312 l 29
 244 514.049804688 l 29
 162.200195312 514.049804688 l 29
 134.299804688 571.25 l 29
 107.399414062 514.049804688 l 29
 25.599609375 514.049804688 l 29
EndSplineSet
EndChar

StartChar: caron
Encoding: 264 711 217
Width: 270
VWidth: 0
Flags: W
HStem: 513.95 151.9
LayerCount: 2
Back
Fore
SplineSet
25.599609375 665.850585938 m 25
 101.399414062 513.950195312 l 25
 167.200195312 513.950195312 l 25
 244 665.850585938 l 25
 162.200195312 665.850585938 l 25
 134.299804688 608.650390625 l 25
 107.399414062 665.850585938 l 25
 25.599609375 665.850585938 l 25
EndSplineSet
EndChar

StartChar: breve
Encoding: 265 728 218
Width: 244
VWidth: 0
Flags: W
HStem: 430.191 64.208<92.7682 151.617>
VStem: 26.3848 64.208<497.342 525.999> 153.792 64.208<497.342 525.999>
LayerCount: 2
Back
Fore
SplineSet
218 525.999023438 m 17
 218 472.637695312 175.553710938 430.19140625 122.192382812 430.19140625 c 0
 68.8310546875 430.19140625 26.384765625 472.637695312 26.384765625 525.999023438 c 9
 90.5927734375 525.999023438 l 17
 90.5927734375 508.399414062 104.592773438 494.399414062 122.192382812 494.399414062 c 0
 139.791992188 494.399414062 153.791992188 508.399414062 153.791992188 525.999023438 c 9
 218 525.999023438 l 17
EndSplineSet
EndChar

StartChar: dotaccent
Encoding: 266 729 219
Width: 202
VWidth: 0
Flags: W
HStem: 603 151<47.75 154.25>
VStem: 26 150<624.75 731.75>
LayerCount: 2
Back
Fore
SplineSet
26 678 m 0
 26 720 59 754 101 754 c 0
 143 754 176 720 176 678 c 0
 176 636 143 603 101 603 c 0
 59 603 26 636 26 678 c 0
EndSplineSet
EndChar

StartChar: dotlessi
Encoding: 267 305 220
Width: 174
VWidth: 0
Flags: HMW
LayerCount: 2
Back
Fore
SplineSet
148 0 m 1
 26 0 l 1
 26 516 l 1
 148 516 l 1
 148 0 l 1
EndSplineSet
EndChar

StartChar: Lslash
Encoding: 268 321 221
Width: 530
VWidth: 0
Flags: HW
HStem: 0 139<269.533 504.533> 680 20G<128.532 269.533>
VStem: 128.532 141<139 700>
LayerCount: 2
Back
Fore
SplineSet
348 553.333984375 m 5
 419.532226562 460 l 5
 97.5322265625 209 l 5
 26 302.333984375 l 5
 348 553.333984375 l 5
EndSplineSet
Refer: 4 76 N 1 0 0 1 102.532 0 2
EndChar

StartChar: lslash
Encoding: 269 322 222
Width: 424
VWidth: 0
Flags: HW
HStem: 0 21G<147.001 278.001 147.001 278.001> 678 20G<147.001 278.001>
VStem: 147.001 131<0 698>
LayerCount: 2
Back
Fore
SplineSet
326.467773438 536.333984375 m 5
 398 443 l 5
 98 209 l 5
 26.4677734375 302.333984375 l 5
 326.467773438 536.333984375 l 5
EndSplineSet
Refer: 56 108 N 1 0 0 1 117.001 0 2
EndChar

StartChar: OE
Encoding: 270 338 223
Width: 724
VWidth: 0
Flags: HMW
HStem: -5 142<181.632 222 277 317.46> 564 141<182.089 223 277 317.65>
VStem: 26 141<156.794 549.004> 333 141<156.794 548.717>
LayerCount: 2
Back
Fore
SplineSet
222 0 m 1
 162 0 26 56 26 200 c 2
 26 519 l 2
 26 579 91 700 223 700 c 1
 223 559 l 1
 177 558 167 508 167 503 c 2
 167 200 l 2
 167 154 217 142 222 142 c 1
 222 0 l 1
698 141 m 1
 698 0 l 1
 277 0 l 5
 277 142 l 1
 334 142 l 1
 334 559 l 1
 277 559 l 1
 277 700 l 1
 698 700 l 1
 698 560 l 1
 475 560 l 1
 475 418 l 1
 604 418 l 1
 604 277 l 1
 475 277 l 1
 475 141 l 1
 698 141 l 1
EndSplineSet
EndChar

StartChar: oe
Encoding: 271 339 224
Width: 671
VWidth: 0
Flags: W
HStem: -1 114<150.634 190 231 270.729 398.285 537.302> 207.5 116<395.458 530.458> 398 118<150.894 190 231 272.037 397.431 434.458 483.458 529.243>
VStem: 26 120<117 394.936> 273 122.458<115.468 207.5 323.5 395.758> 530.458 114<323.5 398.09>
LayerCount: 2
Back
Fore
SplineSet
26 376 m 2
 26 421 77 516 184 516 c 2
 190 516 l 1
 190 398 l 1
 184 398 l 2
 151 398 146 374 146 373 c 2
 146 142 l 2
 146 139 154 113 184 113 c 2
 190 113 l 1
 190 -1 l 1
 184 -1 l 2
 76 -1 26 97 26 141 c 2
 26 376 l 2
486.533203125 402.395507812 m 2
 483.458007812 402.319335938 l 1
 483.458007812 516 l 1
 488.958007812 516 l 2
 558.798828125 516 644.458007812 450.33984375 644.458007812 377.958984375 c 2
 644.458007812 207.5 l 1
 395.458007812 207.5 l 1
 395.458007812 140.802734375 l 2
 395.458007812 137.75 402.411132812 108.975585938 430.12890625 108.131835938 c 2
 488.67578125 107.993164062 l 2
 519 108 541.169921875 132.319335938 545.314453125 153.103515625 c 2
 546.000976562 156.54296875 l 1
 645 120.118164062 l 1
 644.374023438 117.521484375 l 2
 629.006835938 53.7734375 558.526367188 0 488.958007812 0 c 2
 429.958007812 0 l 2
 390.320279988 0 358.140378955 14.1137244843 333.500153211 34.0485682516 c 1
 309.365149393 13.5759517556 277.314932153 -1 237 -1 c 2
 231 -1 l 1
 231 113 l 1
 237 113 l 2
 268 114 273 138 273 140 c 2
 273 372 l 2
 273 375 267 398 237 398 c 2
 231 398 l 1
 231 516 l 1
 237 516 l 2
 276.84582521 516 308.759935962 501.78277597 332.916015552 481.743020647 c 1
 357.453438944 501.771398872 389.511848371 516 428.958007812 516 c 2
 434.458007812 516 l 1
 434.458007812 400.401367188 l 1
 431.458007812 400.401367188 l 2
 402.360351562 400.401367188 395.458007812 379.908203125 395.458007812 368.529296875 c 2
 395.458007812 323.5 l 1
 530.458007812 323.5 l 1
 530.458007812 368.733398438 l 2
 530.458007812 395.27734375 506.698242188 402.891601562 486.533203125 402.395507812 c 2
EndSplineSet
EndChar

StartChar: florin
Encoding: 277 402 230
Width: 382
VWidth: 0
Flags: W
HStem: -168 105<53 138.677> 0 7<141 263> 400 116<78 141 263 329> 579 117<267.402 329>
VStem: 141 122<-59.7446 400 516 576.403>
LayerCount: 2
Back
Fore
SplineSet
263 7 m 1
 263 -30 l 0
 263 -92 221 -168 109 -168 c 2
 26 -168 l 5
 53 -63 l 5
 108 -63 l 1
 136 -62 141 -39 141 -36 c 0
 141 7 l 1
 263 7 l 1
141 552 m 0
 141 597 192 695 295 696 c 2
 356 696 l 1
 329 579 l 1
 296 579 l 1
 268 578 263 555 263 552 c 0
 263 515 l 1
 329 516 l 1
 329 400 l 1
 263 400 l 1
 263 0 l 1
 141 0 l 1
 141 400 l 1
 78 400 l 1
 78 516 l 1
 141 516 l 1
 141 552 l 0
EndSplineSet
EndChar

StartChar: hungarumlaut
Encoding: 278 733 231
Width: 336
VWidth: 0
Flags: W
HStem: 605 152
LayerCount: 2
Back
Fore
SplineSet
252 605 m 1
 310 757 l 1
 198 757 l 1
 169 605 l 1
 252 605 l 1
109 605 m 1
 167 757 l 1
 55 757 l 1
 26 605 l 1
 109 605 l 1
EndSplineSet
EndChar

StartChar: dagger
Encoding: 287 8224 240
Width: 453
VWidth: 0
Flags: W
HStem: 450 127<26 155.999 296.999 427>
VStem: 155.999 141<-56 450 577 764.001>
LayerCount: 2
Back
Fore
SplineSet
427 577 m 1
 427 450 l 1
 296.999023438 450 l 1
 296.999023438 -56 l 1
 155.999023438 -56 l 1
 155.999023438 450 l 1
 26 450 l 1
 26 577 l 1
 155.999023438 577 l 1
 155.999023438 764.000976562 l 1
 296.999023438 764.000976562 l 1
 296.999023438 577 l 1
 427 577 l 1
EndSplineSet
EndChar

StartChar: daggerdbl
Encoding: 288 8225 241
Width: 453
VWidth: 0
Flags: W
HStem: 131 127<25.999 155.999 296.999 426.999> 450 127<26 155.999 296.999 427>
VStem: 155.999 141<-56 131 258 450 577 764.001>
LayerCount: 2
Back
Fore
SplineSet
155.999023438 764.000976562 m 1
 296.999023438 764.000976562 l 1
 296.999023438 577 l 1
 427 577 l 1
 427 450 l 1
 296.999023438 450 l 1
 296.999023438 258 l 1
 426.999023438 258 l 1
 426.999023438 131 l 1
 296.999023438 131 l 1
 296.999023438 -56 l 1
 155.999023438 -56 l 1
 155.999023438 131 l 1
 25.9990234375 131 l 1
 25.9990234375 258 l 1
 155.999023438 258 l 1
 155.999023438 450 l 1
 26 450 l 1
 26 577 l 1
 155.999023438 577 l 1
 155.999023438 764.000976562 l 1
EndSplineSet
EndChar

StartChar: perthousand
Encoding: 290 8240 243
Width: 897
VWidth: 0
Flags: W
HStem: 0 21G<67 159.086 487.432 489 517 518.568 745.432 747 775 776.568> 0 21G<67 159.086 487.432 489 517 518.568 745.432 747 775 776.568> 682.587 20G<120.916 122.5 149.5 151.084 484.714 570>
VStem: 26 67.5<420.87 632.43> 178.5 67.5<420.87 632.654> 393 67.5<70.4402 282> 545.5 67.5<70.4402 282.223> 651 67.5<70.4402 282> 803.5 67.5<70.4402 282.223>
LayerCount: 2
Back
Fore
SplineSet
747.5 352.15625 m 1xbf80
 747.5 286.893554688 l 1
 746.357421875 286.61328125 l 0
 721.479492188 280.510742188 718.5 232.509765625 718.5 200.569335938 c 0
 718.5 171.069335938 l 0
 718.5 124.982421875 720.071289062 71.12109375 745.844726562 65.029296875 c 0
 747 64.7568359375 l 1
 747 0 l 1
 745.431640625 0.0712890625 l 0
 711.470703125 1.615234375 651 27.642578125 651 178.069335938 c 0
 651 306.370117188 700.283203125 349.50390625 745.916015625 352.067382812 c 0
 747.5 352.15625 l 1xbf80
776.083984375 352.067382812 m 2
 821.7109375 349.50390625 871 306.872070312 871 178.069335938 c 0
 871 27.642578125 810.529296875 1.615234375 776.568359375 0.0712890625 c 0
 775 0 l 1
 775 64.7568359375 l 1
 776.155273438 65.029296875 l 0
 801.928710938 71.12109375 803.5 124.982421875 803.5 171.069335938 c 0
 803.5 200.569335938 l 0
 803.5 232.509765625 800.520507812 280.510742188 775.642578125 286.61328125 c 0
 774.5 286.893554688 l 1
 774.5 352.15625 l 1
 776.083984375 352.067382812 l 2
489.5 352.15625 m 1
 489.5 286.893554688 l 1
 488.357421875 286.61328125 l 0
 463.479492188 280.510742188 460.5 232.509765625 460.5 200.569335938 c 0
 460.5 171.069335938 l 0
 460.5 124.982421875 462.071289062 71.12109375 487.844726562 65.029296875 c 0
 489 64.7568359375 l 1
 489 0 l 1
 487.431640625 0.0712890625 l 0
 453.470703125 1.615234375 393 27.642578125 393 178.069335938 c 0
 393 306.370117188 442.283203125 349.50390625 487.916015625 352.067382812 c 0
 489.5 352.15625 l 1
518.083984375 352.067382812 m 2
 563.7109375 349.50390625 613 306.872070312 613 178.069335938 c 0
 613 27.642578125 552.529296875 1.615234375 518.568359375 0.0712890625 c 0
 517 0 l 1
 517 64.7568359375 l 1
 518.155273438 65.029296875 l 0
 543.928710938 71.12109375 545.5 124.982421875 545.5 171.069335938 c 0
 545.5 200.569335938 l 0
 545.5 232.509765625 542.520507812 280.510742188 517.642578125 286.61328125 c 0
 516.5 286.893554688 l 1
 516.5 352.15625 l 1
 518.083984375 352.067382812 l 2
122.5 702.586914062 m 1
 122.5 637.323242188 l 1
 121.357421875 637.04296875 l 0
 96.4794921875 630.94140625 93.5 582.940429688 93.5 551 c 0
 93.5 521.5 l 0
 93.5 475.413085938 95.0712890625 421.551757812 120.844726562 415.459960938 c 0
 122 415.186523438 l 1
 122 350.430664062 l 1
 120.431640625 350.501953125 l 0
 86.470703125 352.044921875 26 378.072265625 26 528.5 c 0
 26 656.80078125 75.283203125 699.93359375 120.916015625 702.498046875 c 0
 122.5 702.586914062 l 1
151.083984375 702.498046875 m 2
 196.7109375 699.934570312 246 657.302734375 246 528.5 c 0
 246 378.072265625 185.529296875 352.044921875 151.568359375 350.501953125 c 0
 150 350.430664062 l 1
 150 415.186523438 l 1
 151.155273438 415.459960938 l 0
 176.928710938 421.551757812 178.5 475.413085938 178.5 521.5 c 0
 178.5 551 l 0
 178.5 582.940429688 175.520507812 630.94140625 150.642578125 637.04296875 c 0
 149.5 637.323242188 l 1
 149.5 702.586914062 l 1
 151.083984375 702.498046875 l 2
67 0 m 1
 497 700 l 1
 570 700 l 1
 147 0 l 1
 67 0 l 1
EndSplineSet
EndChar

StartChar: guilsinglleft
Encoding: 291 8249 244
Width: 338
VWidth: 0
Flags: W
LayerCount: 2
Back
Fore
SplineSet
157 500 m 5
 26 292 l 5
 157 79 l 5
 312 79 l 5
 181 292 l 5
 312 500 l 5
 157 500 l 5
EndSplineSet
EndChar

StartChar: guilsinglright
Encoding: 292 8250 245
Width: 338
VWidth: 0
Flags: W
VStem: 26 286
LayerCount: 2
Back
Fore
SplineSet
181 500 m 1
 312 292 l 1
 181 79 l 1
 26 79 l 1
 157 292 l 1
 26 500 l 1
 181 500 l 1
EndSplineSet
EndChar

StartChar: fraction
Encoding: 293 8260 246
Width: 560
VWidth: 0
Flags: W
HStem: 681.5 20G<445.216 534>
LayerCount: 2
Back
Fore
SplineSet
25.6591796875 -1.5 m 1
 457.501953125 701.5 l 1
 534 701.5 l 1
 109.186523438 -1.5 l 1
 25.6591796875 -1.5 l 1
EndSplineSet
EndChar

StartChar: fi
Encoding: 295 64257 248
Width: 494
VWidth: 0
Flags: W
HStem: 0 21G<89 211 335 457> 0 21G<89 211 335 457> 400 116<26 89 211 335> 558 145<343.5 446.5> 579 117<215.402 277>
VStem: 89 122<0 400 516 576.403> 322 146<579.375 681.5> 335 122<0 400>
LayerCount: 2
Back
Fore
SplineSet
89 552 m 2xad
 89 597 140 695 243 696 c 2
 304 696 l 1
 277 579 l 1
 244 579 l 2
 216 578 211 555 211 552 c 2
 211 516 l 1
 457 516 l 1
 457 0 l 1
 335 0 l 1
 335 400 l 1
 211 400 l 1
 211 0 l 1
 89 0 l 1
 89 400 l 1
 26 400 l 1
 26 516 l 1
 89 516 l 1
 89 552 l 2xad
468 630 m 0x36
 468 591 435 558 395 558 c 0
 355 558 322 591 322 630 c 0
 322 670 355 703 395 703 c 0
 435 703 468 670 468 630 c 0x36
EndSplineSet
EndChar

StartChar: fl
Encoding: 296 64258 249
Width: 483
VWidth: 0
Flags: W
HStem: 0 21G<89 211 331 457> 0 21G<89 211 331 457> 400 116<26 89 211 277> 579 117<215.402 331>
VStem: 89 122<0 400 516 576.403> 331 126<0 579>
LayerCount: 2
Back
Fore
SplineSet
457 0 m 1xbc
 331 0 l 1
 331 579 l 1
 244 579 l 2
 216 578 211 555 211 552 c 2
 211 515 l 1
 277 516 l 1
 277 400 l 1
 211 400 l 1
 211 0 l 1
 89 0 l 1
 89 400 l 1
 26 400 l 1
 26 516 l 1
 89 516 l 1
 89 552 l 2
 89 597 140 695 243 696 c 2
 457 696 l 1
 457 0 l 1xbc
EndSplineSet
EndChar
